<svg id="eUBeZrVEMNR1" xmlns="http://www.w3.org/2000/svg" xmlns:xlink="http://www.w3.org/1999/xlink" viewBox="0 0 1424 947" shape-rendering="geometricPrecision" text-rendering="geometricPrecision"><style><![CDATA[#eUBeZrVEMNR10_to {animation: eUBeZrVEMNR10_to__to 4000ms linear infinite normal forwards}@keyframes eUBeZrVEMNR10_to__to { 0% {transform: translate(385.838852px,533.228577px)} 25% {transform: translate(378.838852px,528.228577px)} 50% {transform: translate(371.838852px,516.228577px)} 75% {transform: translate(378.838852px,528.228577px)} 100% {transform: translate(385.838852px,533.228577px)}} #eUBeZrVEMNR10_tr {animation: eUBeZrVEMNR10_tr__tr 4000ms linear infinite normal forwards}@keyframes eUBeZrVEMNR10_tr__tr { 0% {transform: rotate(0deg)} 25% {transform: rotate(-5deg)} 50% {transform: rotate(-10deg)} 75% {transform: rotate(-5deg)} 100% {transform: rotate(0deg)}} #eUBeZrVEMNR13 {animation: eUBeZrVEMNR13_c_o 4000ms linear infinite normal forwards}@keyframes eUBeZrVEMNR13_c_o { 0% {opacity: 1} 5% {opacity: 1} 25% {opacity: 0.5} 50% {opacity: 0} 75% {opacity: 0.5} 100% {opacity: 1}} #eUBeZrVEMNR30 {animation: eUBeZrVEMNR30_c_o 4000ms linear infinite normal forwards}@keyframes eUBeZrVEMNR30_c_o { 0% {opacity: 1} 5% {opacity: 1} 20% {opacity: 1} 25% {opacity: 0} 100% {opacity: 0}} #eUBeZrVEMNR118_to {animation: eUBeZrVEMNR118_to__to 4000ms linear infinite normal forwards}@keyframes eUBeZrVEMNR118_to__to { 0% {transform: translate(103.14259px,187.653679px)} 25% {transform: translate(103.14259px,167.653679px)} 50% {transform: translate(103.14259px,144.320346px)} 75% {transform: translate(103.14259px,165.987013px)} 100% {transform: translate(103.14259px,187.653679px)}} #eUBeZrVEMNR133_to {animation: eUBeZrVEMNR133_to__to 4000ms linear infinite normal forwards}@keyframes eUBeZrVEMNR133_to__to { 0% {transform: translate(1228.310059px,152.5px)} 12.5% {transform: translate(1228.310059px,132.5px)} 25% {transform: translate(1228.310059px,112.5px)} 37.5% {transform: translate(1228.310059px,132.5px)} 50% {transform: translate(1228.310059px,152.5px)} 62.5% {transform: translate(1228.310059px,132.5px)} 75% {transform: translate(1228.310059px,112.5px)} 87.5% {transform: translate(1228.310059px,132.5px)} 100% {transform: translate(1228.310059px,152.5px)}} #eUBeZrVEMNR401_to {animation: eUBeZrVEMNR401_to__to 4000ms linear infinite normal forwards}@keyframes eUBeZrVEMNR401_to__to { 0% {transform: translate(646.504775px,757.499999px)} 5% {transform: translate(643.504775px,764.499999px)} 10% {transform: translate(640.504775px,770.499999px)} 15% {transform: translate(642.504775px,763.499999px)} 20% {transform: translate(650.504775px,759.499999px)} 29.75% {transform: translate(643.504775px,764.499999px)} 35% {transform: translate(640.504775px,770.499999px)} 40% {transform: translate(642.504775px,763.499999px)} 45% {transform: translate(650.504775px,759.499999px)} 55% {transform: translate(643.504775px,764.499999px)} 60% {transform: translate(640.504775px,770.499999px)} 65% {transform: translate(642.504775px,763.499999px)} 70% {transform: translate(650.504775px,759.499999px)} 80% {transform: translate(643.504775px,764.499999px)} 85.25% {transform: translate(640.504775px,770.499999px)} 90% {transform: translate(642.504775px,763.499999px)} 95% {transform: translate(650.504775px,759.499999px)} 100% {transform: translate(650.504775px,759.499999px)}} #eUBeZrVEMNR401_tr {animation: eUBeZrVEMNR401_tr__tr 4000ms linear infinite normal forwards}@keyframes eUBeZrVEMNR401_tr__tr { 0% {transform: rotate(0deg)} 5% {transform: rotate(-5deg)} 10% {transform: rotate(-10deg)} 15% {transform: rotate(-5deg)} 20% {transform: rotate(0deg)} 30% {transform: rotate(-5deg)} 34.75% {transform: rotate(-10deg)} 40% {transform: rotate(-5deg)} 45% {transform: rotate(0deg)} 55% {transform: rotate(-5deg)} 60% {transform: rotate(-10deg)} 65% {transform: rotate(-5deg)} 70% {transform: rotate(0deg)} 80.25% {transform: rotate(-5deg)} 85% {transform: rotate(-10deg)} 90% {transform: rotate(-5deg)} 95% {transform: rotate(0deg)} 100% {transform: rotate(0deg)}} #eUBeZrVEMNR419_to {animation: eUBeZrVEMNR419_to__to 4000ms linear infinite normal forwards}@keyframes eUBeZrVEMNR419_to__to { 0% {transform: translate(1125.436402px,637.12915px)} 15% {transform: translate(1118.436402px,651.12915px)} 25% {transform: translate(1112.769735px,663.462483px)} 40% {transform: translate(1118.436402px,651.12915px)} 50% {transform: translate(1125.436402px,637.12915px)} 65% {transform: translate(1118.436402px,651.12915px)} 75% {transform: translate(1112.769735px,663.462483px)} 90% {transform: translate(1118.436402px,651.12915px)} 100% {transform: translate(1125.436402px,637.12915px)}} #eUBeZrVEMNR419_tr {animation: eUBeZrVEMNR419_tr__tr 4000ms linear infinite normal forwards}@keyframes eUBeZrVEMNR419_tr__tr { 0% {transform: rotate(0deg)} 15% {transform: rotate(-5deg)} 25% {transform: rotate(-10deg)} 40% {transform: rotate(-5deg)} 50% {transform: rotate(0deg)} 65% {transform: rotate(-5deg)} 75% {transform: rotate(-10deg)} 90% {transform: rotate(-5deg)} 100% {transform: rotate(0deg)}} #eUBeZrVEMNR523_to {animation: eUBeZrVEMNR523_to__to 4000ms linear infinite normal forwards}@keyframes eUBeZrVEMNR523_to__to { 0% {transform: translate(802.553px,190.572357px)} 25% {transform: translate(772.553px,160.572357px)} 50% {transform: translate(742.553px,130.572357px)} 75% {transform: translate(712.553px,100.572357px)} 100% {transform: translate(682.553px,70.572357px)}} #eUBeZrVEMNR530 {animation: eUBeZrVEMNR530_c_o 4000ms linear infinite normal forwards}@keyframes eUBeZrVEMNR530_c_o { 0% {opacity: 0} 45% {opacity: 0} 50% {opacity: 1} 70% {opacity: 1} 75% {opacity: 0} 100% {opacity: 0}} #eUBeZrVEMNR531 {animation: eUBeZrVEMNR531_c_o 4000ms linear infinite normal forwards}@keyframes eUBeZrVEMNR531_c_o { 0% {opacity: 0} 70% {opacity: 0} 75% {opacity: 1} 95% {opacity: 1} 100% {opacity: 0}} #eUBeZrVEMNR532 {animation: eUBeZrVEMNR532_c_o 4000ms linear infinite normal forwards}@keyframes eUBeZrVEMNR532_c_o { 0% {opacity: 0} 95% {opacity: 0} 100% {opacity: 1}} #eUBeZrVEMNR533 {animation: eUBeZrVEMNR533_c_o 4000ms linear infinite normal forwards}@keyframes eUBeZrVEMNR533_c_o { 0% {opacity: 0} 20% {opacity: 0} 25% {opacity: 1} 45% {opacity: 1} 50% {opacity: 0} 100% {opacity: 0}}]]></style><path d="M1101.12,524.5l-42.240942,41.2195L1100.499268,561l.620732-36.5Z" fill="#4cb582" stroke="#3f5787" stroke-width="0"/><g mask="url(#eUBeZrVEMNR7)"><g><circle r="215" transform="translate(516.81 441)" fill="#fabd03" fill-opacity="0.5"/><circle r="85" transform="translate(513.81 445)" fill="#fff"/></g><mask id="eUBeZrVEMNR7" mask-type="alpha"><rect width="295" height="288" rx="0" ry="0" transform="translate(436.81 226)" fill="#c4c4c4"/></mask></g><path d="M564.814,453.004h-1h1ZM672.31,347.001l.062.998-.062-.998ZM550.31,574l.867.498.023-.039.019-.042-.909-.417ZM395.287,672.645c.552.023,1.018-.405,1.041-.957s-.405-1.018-.957-1.041l-.084,1.998Zm5.098-1.945c-.552.011-.991.467-.98,1.02.01.552.467.991,1.019.98l-.039-2Zm5.164,1.758c.551-.041.964-.521.923-1.072-.041-.55-.521-.964-1.071-.923l.148,1.995Zm4.853-2.494c-.548.068-.937.568-.868,1.116.068.548.567.937,1.116.868l-.248-1.984Zm5.314,1.235c.545-.093.911-.61.818-1.154-.093-.545-.61-.911-1.154-.818l.336,1.972Zm4.609-2.923c-.54.115-.884.646-.769,1.186.115.541.647.885,1.187.769l-.418-1.955Zm5.4.79c.535-.135.859-.679.723-1.215-.135-.535-.679-.859-1.215-.723l.492,1.938Zm4.376-3.265c-.531.154-.835.709-.681,1.239.155.531.71.835,1.24.681l-.559-1.92Zm5.445.408c.525-.172.811-.737.639-1.262-.171-.525-.736-.811-1.261-.639l.622,1.901Zm4.148-3.544c-.519.188-.788.761-.6,1.28.187.52.761.789,1.28.601l-.68-1.881Zm5.451.078c.514-.203.766-.783.563-1.297-.202-.514-.783-.766-1.297-.564l.734,1.861Zm3.936-3.776c-.508.216-.745.804-.528,1.312.216.508.804.744,1.312.528l-.784-1.84Zm5.452-.221c.502-.23.723-.823.494-1.325-.23-.503-.823-.724-1.325-.494l.831,1.819Zm3.739-3.978c-.496.242-.702.841-.461,1.337.242.497.841.703,1.337.461l-.876-1.798Zm5.438-.493c.491-.254.683-.857.429-1.348-.253-.49-.857-.682-1.347-.429l.918,1.777Zm3.542-4.149c-.485.265-.663.872-.398,1.357.265.484.873.662,1.357.398l-.959-1.755Zm5.403-.741c.479-.275.643-.887.367-1.365-.275-.479-.887-.643-1.365-.367l.998,1.732Zm3.354-4.304c-.473.286-.624.901-.338,1.373.287.473.901.624,1.374.338l-1.036-1.711Zm5.369-.978c.466-.297.604-.915.308-1.381s-.914-.604-1.38-.307l1.072,1.688Zm3.168-4.446c-.46.306-.585.927-.279,1.387.306.459.927.584,1.387.278l-1.108-1.665Zm5.321-1.202c.453-.316.565-.939.249-1.392-.315-.454-.938-.565-1.392-.25l1.143,1.642Zm2.977-4.573c-.447.325-.546.95-.221,1.397.325.446.95.545,1.397.22l-1.176-1.617Zm5.268-1.424c.44-.334.525-.961.191-1.401s-.961-.526-1.401-.192l1.21,1.593Zm2.785-4.693c-.433.343-.506.972-.163,1.405s.972.506,1.405.162l-1.242-1.567Zm5.203-1.641c.425-.352.485-.982.132-1.408-.352-.425-.982-.485-1.407-.133l1.275,1.541Zm2.586-4.806c-.418.361-.464.993-.103,1.411.361.417.993.463,1.411.102l-1.308-1.513Zm5.13-1.862c.41-.37.443-1.002.073-1.412s-1.003-.443-1.413-.073l1.34,1.485Zm2.376-4.912c-.402.379-.42,1.012-.042,1.413.379.402,1.012.421,1.414.042l-1.372-1.455Zm5.04-2.084c.393-.388.398-1.021.01-1.414s-1.021-.397-1.414-.009l1.404,1.423Zm2.151-5.014c-.384.397-.373,1.03.024,1.414s1.03.373,1.414-.023l-1.438-1.391Zm4.943-2.32c.374-.406.348-1.039-.058-1.413-.406-.375-1.038-.349-1.413.057l1.471,1.356Zm1.908-5.114c-.364.415-.322,1.047.093,1.411s1.047.323,1.411-.093l-1.504-1.318Zm4.818-2.562c.353-.424.295-1.055-.13-1.408s-1.055-.295-1.408.13l1.538,1.278Zm1.635-5.202c-.341.435-.266,1.063.168,1.405.434.341,1.063.266,1.404-.168l-1.572-1.237Zm4.667-2.817c.329-.444.236-1.07-.208-1.399-.444-.328-1.07-.235-1.399.209l1.607,1.19Zm1.338-5.295c-.315.454-.202,1.077.251,1.392.454.315,1.077.203,1.392-.251l-1.643-1.141Zm4.492-3.105c.3-.463.168-1.083-.296-1.383s-1.083-.167-1.383.296l1.679,1.087Zm.989-5.367c-.284.474-.13,1.088.344,1.372s1.088.13,1.372-.344l-1.716-1.028Zm4.112-3.618c.223-.505-.006-1.095-.511-1.318-.506-.223-1.096.006-1.319.511l1.83.807Zm.165-5.514c-.208.511.038,1.095.549,1.303.512.208,1.095-.038,1.303-.55l-1.852-.753Zm3.73-4.065c.193-.518-.07-1.094-.588-1.287-.517-.193-1.093.07-1.286.588l1.874.699Zm-.158-5.515c-.177.523.102,1.091.625,1.269.523.177,1.091-.102,1.269-.625l-1.894-.644Zm3.488-4.275c.163-.528-.133-1.088-.661-1.25-.527-.163-1.087.133-1.25.661l1.911.589Zm-.474-5.498c-.148.533.164,1.084.696,1.231.533.148,1.084-.164,1.231-.696l-1.927-.535Zm3.238-4.468c.133-.536-.194-1.078-.73-1.21-.537-.133-1.079.194-1.211.731l1.941.479Zm-.783-5.462c-.118.539.224,1.072.764,1.19.54.117,1.072-.225,1.19-.765l-1.954-.425Zm2.985-4.642c.102-.543-.254-1.066-.797-1.168-.543-.103-1.066.253-1.168.796l1.965.372Zm-1.082-5.412c-.088.546.283,1.059.828,1.147s1.059-.282,1.147-.828l-1.975-.319Zm2.732-4.794c.073-.547-.311-1.051-.858-1.124-.547-.074-1.051.31-1.124.857l1.982.267Zm-1.365-5.345c-.06.549.337,1.043.886,1.102.549.06,1.043-.337,1.102-.886l-1.988-.216Zm2.482-4.923c.045-.55-.363-1.034-.914-1.08-.55-.046-1.034.363-1.08.914l1.994.166Zm-1.63-5.271c-.033.552.388,1.025.939,1.057.551.033,1.025-.387,1.057-.939l-1.996-.118Zm2.241-5.05c.02-.552-.412-1.016-.964-1.035-.552-.02-1.015.411-1.035.963l1.999.072Zm-1.874-5.193c-.008.553.434,1.006.986,1.014.553.007,1.006-.435,1.013-.987l-1.999-.027Zm2.012-5.128c-.005-.552-.456-.996-1.008-.992-.552.005-.996.456-.992,1.008l2-.016Zm-2.094-5.115c.016.552.476.987,1.028.972.552-.016.987-.476.971-1.028l-1.999.056Zm1.806-5.212c-.026-.552-.494-.978-1.046-.952-.552.025-.978.493-.952,1.045l1.998-.093Zm-2.28-5.03c.035.552.51.97,1.061.936.551-.035.97-.51.935-1.061l-1.996.125Zm1.639-5.253c-.041-.551-.522-.964-1.072-.922-.551.042-.964.522-.922,1.073l1.994-.151Zm-2.405-4.979c.046.55.529.959,1.08.914.55-.046.959-.529.914-1.08l-1.994.166Zm1.57-5.283c-.044-.55-.526-.961-1.076-.917-.551.044-.961.526-.918,1.076l1.994-.159Zm-2.344-5.021c.026.552.495.977,1.046.951.552-.026.978-.495.952-1.046l-1.998.095Zm1.964-5.041c.014-.553-.421-1.012-.973-1.027s-1.012.421-1.027.973l2,.054Zm-1.748-5.023c-.041.551.373,1.03.924,1.071.551.04,1.03-.373,1.07-.924l-1.994-.147Zm2.46-4.746c.064-.549-.329-1.045-.878-1.109-.548-.064-1.045.329-1.109.877l1.987.232Zm-1.307-5.175c-.086.545.286,1.057.831,1.144.546.086,1.058-.286,1.145-.831l-1.976-.313Zm2.847-4.537c.109-.542-.242-1.069-.784-1.178-.541-.109-1.068.242-1.177.784l1.961.394Zm-.878-5.264c-.131.536.198,1.077.734,1.208.537.131,1.078-.197,1.209-.734l-1.943-.474Zm3.207-4.265c.153-.531-.152-1.085-.683-1.239-.53-.153-1.085.152-1.238.683l1.921.556Zm-.43-5.323c-.176.523.105,1.09.629,1.267.523.176,1.09-.105,1.267-.628l-1.896-.639Zm3.566-3.977c.2-.515-.056-1.094-.571-1.294s-1.094.056-1.293.571l1.864.723Zm.049-5.342c-.223.505.006,1.095.511,1.318.505.224,1.095-.005,1.318-.51l-1.829-.808Zm3.917-3.632c.247-.494.047-1.094-.447-1.341s-1.095-.047-1.342.447l1.789.894Zm.556-5.312c-.271.481-.1,1.091.381,1.362.482.271,1.091.1,1.362-.381l-1.743-.981Zm4.254-3.229c.295-.467.155-1.084-.312-1.379s-1.084-.155-1.379.312l1.691,1.067Zm1.088-5.228c-.319.451-.211,1.075.24,1.394.451.318,1.075.211,1.394-.24l-1.634-1.154Zm4.563-2.772c.342-.434.268-1.062-.166-1.404s-1.063-.268-1.405.166l1.571,1.238Zm1.631-5.084c-.365.415-.324,1.047.091,1.411.415.365,1.047.324,1.411-.091l-1.502-1.32Zm4.833-2.27c.386-.395.38-1.028-.015-1.414s-1.028-.38-1.414.015l1.429,1.399Zm2.169-4.88c-.408.373-.435,1.005-.062,1.412.373.408,1.006.435,1.413.062l-1.351-1.474Zm5.052-1.74c.426-.351.488-.981.137-1.408-.351-.426-.981-.488-1.408-.137l1.271,1.545Zm2.685-4.626c-.445.328-.54.954-.212,1.398.328.445.954.54,1.399.212l-1.187-1.61Zm5.203-1.193c.461-.305.588-.925.284-1.386s-.925-.588-1.386-.284l1.102,1.67Zm3.13-4.312c-.475.281-.633.894-.353,1.369.281.476.894.634,1.37.354l-1.017-1.723Zm5.294-.661c.488-.257.676-.862.419-1.351s-.862-.676-1.35-.419l.931,1.77Zm3.552-3.994c-.5.234-.716.829-.483,1.329.234.5.829.717,1.33.483l-.847-1.812Zm5.361-.172c.511-.211.754-.796.543-1.306-.211-.511-.795-.754-1.306-.543l.763,1.849Zm3.867-3.644c-.52.188-.787.762-.599,1.281.189.519.763.787,1.282.598l-.683-1.879Zm5.325.3c.526-.168.817-.73.65-1.256-.167-.527-.73-.818-1.256-.65l.606,1.906Zm4.206-3.331c-.533.146-.846.697-.699,1.229.146.533.697.846,1.229.699l-.53-1.928Zm5.272.718c.537-.127.87-.666.743-1.203-.127-.538-.665-.871-1.203-.744l.46,1.947Zm4.404-3.005c-.541.108-.893.635-.785,1.177.108.541.635.893,1.177.785l-.392-1.962Zm5.274,1.073c.544-.09.913-.605.823-1.15s-.604-.914-1.149-.824l.326,1.974Zm4.554-2.702c-.548.073-.932.577-.859,1.124s.576.932,1.124.859l-.265-1.983Zm5.175,1.401c.55-.057.949-.549.892-1.098s-.549-.948-1.098-.891l.206,1.989Zm4.738-2.433c-.55.042-.963.522-.921,1.073s.522.963,1.073.922l-.152-1.995Zm5.232,1.679c.552-.028.977-.497.95-1.048-.027-.552-.496-.977-1.048-.95l.098,1.998Zm5.111-2.191c-.552.014-.988.473-.974,1.025s.473.988,1.025.974l-.051-1.999Zm5.218,1.92c.552-.003.997-.454.994-1.006s-.453-.997-1.005-.994l.011,2Zm5.193-1.983c-.552-.006-1.005.436-1.012.988-.006.553.436,1.005.988,1.012l.024-2Zm5.148,2.1c.552.015,1.012-.421,1.026-.973.015-.552-.421-1.011-.973-1.026l-.053,1.999Zm5.253-1.827c-.552-.022-1.017.408-1.039.96-.021.552.408,1.017.96,1.039l.079-1.999Zm5.098,2.231c.552.028,1.021-.396,1.049-.948s-.397-1.021-.949-1.049l-.1,1.997Zm5.287-1.711c-.551-.033-1.025.387-1.058.938-.032.552.388,1.025.939,1.058l.119-1.996Zm5.051,2.325c.551.037,1.028-.379,1.065-.93.038-.551-.379-1.028-.93-1.065l-.135,1.995Zm5.322-1.627c-.551-.041-1.031.372-1.072.923s.373,1.03.924,1.071l.148-1.994Zm5.015,2.392c.551.044,1.033-.367,1.077-.918.044-.55-.367-1.032-.918-1.076l-.159,1.994Zm5.34-1.569c-.55-.046-1.034.363-1.08.913-.047.55.362,1.034.912,1.08l.168-1.993Zm4.994,2.438c.55.049,1.035-.358,1.084-.908.048-.55-.359-1.036-.909-1.084l-.175,1.992Zm5.351-1.529c-.55-.05-1.036.356-1.086.906s.355,1.036.905,1.086l.181-1.992Zm4.979,2.467c.55.051,1.037-.353,1.089-.903.051-.55-.353-1.037-.903-1.088l-.186,1.991Zm5.357-1.505c-.55-.052-1.038.351-1.09.901s.351,1.038.901,1.09l.189-1.991Zm4.974,2.483c.549.052,1.038-.351,1.09-.901.053-.549-.35-1.038-.9-1.09l-.19,1.991Zm5.355-1.496c-.549-.052-1.038.35-1.091.9s.35,1.038.9,1.091l.191-1.991Zm4.979,2.489c.55.053,1.038-.35,1.091-.9s-.35-1.038-.9-1.091l-.191,1.991Zm5.352-1.495c-.55-.053-1.039.35-1.091.9-.053.549.35,1.038.9,1.09l.191-1.99ZM392.735,672.497c.845.063,1.696.113,2.552.148l.084-1.998c-.835-.035-1.664-.083-2.487-.144l-.149,1.994Zm7.689.203c1.69-.033,3.399-.114,5.125-.242l-.148-1.995c-1.691.126-3.364.206-5.016.237l.039,2Zm10.226-.752c1.675-.208,3.365-.459,5.066-.749l-.336-1.972c-1.673.286-3.333.532-4.978.737l.248,1.984Zm10.093-1.717c1.652-.352,3.313-.741,4.982-1.165l-.492-1.938c-1.645.417-3.282.8-4.908,1.148l.418,1.955Zm9.917-2.51c1.623-.473,3.252-.978,4.886-1.512l-.622-1.901c-1.613.528-3.222,1.026-4.823,1.493l.559,1.92Zm9.714-3.175c1.588-.574,3.178-1.175,4.771-1.803l-.734-1.861c-1.575.621-3.148,1.216-4.717,1.783l.68,1.881Zm9.491-3.739c1.556-.663,3.112-1.35,4.668-2.061l-.831-1.819c-1.541.704-3.081,1.384-4.621,2.04l.784,1.84Zm9.283-4.241c1.523-.742,3.044-1.506,4.562-2.291l-.918-1.777c-1.505.778-3.011,1.535-4.52,2.27l.876,1.798Zm9.063-4.685c1.486-.813,2.967-1.645,4.444-2.496l-.998-1.732c-1.464.843-2.933,1.668-4.405,2.473l.959,1.755Zm8.834-5.089c1.45-.879,2.895-1.776,4.333-2.689l-1.072-1.688c-1.426.906-2.859,1.795-4.297,2.666l1.036,1.711Zm8.609-5.47c1.412-.94,2.817-1.896,4.213-2.867l-1.143-1.642c-1.384.964-2.777,1.912-4.178,2.844l1.108,1.665Zm8.366-5.823c1.374-.999,2.738-2.013,4.092-3.041l-1.21-1.593c-1.342,1.02-2.696,2.026-4.058,3.017l1.176,1.617Zm8.119-6.167c1.332-1.056,2.653-2.125,3.961-3.208l-1.275-1.541c-1.298,1.074-2.607,2.135-3.928,3.182l1.242,1.567Zm7.855-6.501c1.288-1.113,2.563-2.238,3.822-3.375l-1.34-1.485c-1.249,1.127-2.512,2.243-3.79,3.347l1.308,1.513Zm7.57-6.832c1.239-1.169,2.462-2.349,3.668-3.539l-1.404-1.423c-1.196,1.179-2.408,2.348-3.636,3.507l1.372,1.455Zm7.257-7.162c1.187-1.228,2.356-2.465,3.505-3.711l-1.471-1.356c-1.138,1.234-2.295,2.46-3.472,3.676l1.438,1.391Zm6.917-7.507c1.126-1.284,2.231-2.578,3.314-3.88l-1.538-1.278c-1.071,1.288-2.165,2.568-3.28,3.84l1.504,1.318Zm6.521-7.845c1.057-1.344,2.089-2.696,3.095-4.054l-1.607-1.19c-.994,1.342-2.015,2.678-3.06,4.007l1.572,1.237Zm6.076-8.208c.979-1.409,1.929-2.825,2.849-4.246l-1.679-1.087c-.908,1.402-1.846,2.8-2.813,4.192l1.643,1.141Zm5.554-8.585c.437-.73.867-1.461,1.288-2.194l-1.734-.996c-.415.721-.838,1.442-1.27,2.162l1.716,1.028Zm1.33-2.275c.363-.791.718-1.581,1.066-2.371l-1.83-.807c-.344.781-.695,1.562-1.054,2.344l1.818.834Zm3.083-7.132c.655-1.611,1.281-3.217,1.878-4.818l-1.874-.699c-.591,1.583-1.209,3.171-1.856,4.764l1.852.753Zm3.614-9.689c.56-1.647,1.091-3.287,1.594-4.919l-1.911-.589c-.497,1.614-1.023,3.236-1.577,4.864l1.894.644Zm3.047-9.882c.465-1.677.902-3.345,1.311-5.003l-1.941-.479c-.405,1.639-.837,3.289-1.297,4.947l1.927.535Zm2.482-10.04c.37-1.701.714-3.391,1.031-5.067l-1.965-.372c-.314,1.659-.654,3.33-1.02,5.014l1.954.425Zm1.924-10.16c.278-1.72.529-3.425.757-5.113l-1.982-.267c-.225,1.671-.475,3.359-.75,5.061l1.975.319Zm1.38-10.242c.189-1.734.352-3.447.494-5.139l-1.994-.166c-.139,1.675-.302,3.372-.488,5.089l1.988.216Zm.86-10.292c.104-1.75.184-3.473.245-5.168l-1.999-.072c-.06,1.681-.14,3.389-.242,5.122l1.996.118Zm.37-10.334c.024-1.754.027-3.473.013-5.155l-2,.016c.014,1.669.011,3.374-.012,5.112l1.999.027Zm-.082-10.326c-.05-1.767-.116-3.487-.193-5.156l-1.998.093c.077,1.658.143,3.366.192,5.119l1.999-.056Zm-.477-10.311c-.112-1.781-.233-3.492-.357-5.128l-1.994.151c.123,1.629.244,3.332.355,5.102l1.996-.125Zm-.768-10.273c-.153-1.835-.298-3.541-.424-5.117l-1.994.159c.126,1.581.272,3.294.424,5.124l1.994-.166Zm-.77-10.233c-.044-.918-.068-1.751-.068-2.498l-2-.001c0,.788.025,1.655.07,2.594l1.998-.095Zm-.068-2.498c0-.77.011-1.587.034-2.448l-2-.054c-.023.879-.034,1.714-.034,2.501l2,.001Zm.28-7.324c.114-1.546.266-3.181.466-4.893l-1.987-.232c-.202,1.741-.358,3.405-.473,4.978l1.994.147Zm1.135-9.755c.249-1.572.537-3.192.871-4.85l-1.961-.394c-.339,1.686-.632,3.332-.886,4.931l1.976.313Zm1.936-9.64c.38-1.556.8-3.137,1.264-4.739l-1.921-.556c-.472,1.629-.899,3.238-1.286,4.821l1.943.474Zm2.73-9.423c.514-1.528,1.07-3.068,1.67-4.616l-1.864-.723c-.612,1.577-1.178,3.145-1.702,4.7l1.896.639Zm3.548-9.15c.653-1.479,1.348-2.96,2.088-4.44l-1.789-.894c-.754,1.509-1.463,3.019-2.128,4.526l1.829.808Zm4.387-8.771c.793-1.409,1.63-2.814,2.511-4.21l-1.691-1.067c-.9,1.425-1.753,2.858-2.563,4.296l1.743.981Zm5.233-8.284c.932-1.32,1.908-2.63,2.929-3.926l-1.571-1.238c-1.043,1.324-2.04,2.662-2.992,4.01l1.634,1.154Zm6.062-7.69c1.066-1.213,2.176-2.41,3.331-3.59l-1.429-1.399c-1.181,1.205-2.315,2.429-3.404,3.669l1.502,1.32Zm6.851-6.996c1.19-1.091,2.423-2.163,3.701-3.214l-1.271-1.545c-1.305,1.074-2.565,2.17-3.781,3.285l1.351,1.474Zm7.573-6.23c1.296-.956,2.635-1.892,4.016-2.803l-1.102-1.67c-1.41.931-2.777,1.886-4.101,2.863l1.187,1.61Zm8.163-5.392c1.386-.818,2.811-1.613,4.277-2.384l-.931-1.77c-1.495.786-2.949,1.597-4.363,2.431l1.017,1.723Zm8.676-4.566c1.467-.685,2.971-1.347,4.514-1.984l-.763-1.849c-1.571.649-3.103,1.323-4.598,2.021l.847,1.812Zm9.064-3.749c1.512-.55,3.059-1.076,4.642-1.579l-.606-1.906c-1.608.511-3.181,1.046-4.719,1.606l.683,1.879Zm9.378-2.982c1.549-.426,3.129-.83,4.742-1.21l-.46-1.947c-1.636.386-3.24.796-4.812,1.229l.53,1.928Zm9.538-2.253c1.597-.319,3.224-.616,4.882-.889l-.326-1.974c-1.68.278-3.328.578-4.948.901l.392,1.962Zm9.701-1.608c1.609-.215,3.246-.41,4.91-.582l-.206-1.989c-1.684.174-3.34.371-4.969.588l.265,1.983Zm9.8-1.02c.827-.063,1.662-.121,2.503-.173l-.124-1.996c-.85.053-1.694.111-2.531.174l.152,1.995Zm2.503-.173c.852-.053,1.711-.101,2.577-.143l-.098-1.998c-.875.043-1.743.091-2.603.145l.124,1.996Zm7.739-.335c1.696-.043,3.418-.07,5.167-.079l-.011-2c-1.762.01-3.497.036-5.207.08l.051,1.999Zm10.336-.062c1.701.02,3.425.054,5.172.1l.053-1.999c-1.757-.047-3.49-.081-5.201-.101l-.024,2Zm10.346.272c1.704.067,3.43.145,5.177.232l.1-1.997c-1.753-.088-3.486-.166-5.198-.234l-.079,1.999Zm10.345.517c1.704.102,3.427.212,5.17.329l.135-1.995c-1.748-.118-3.476-.228-5.186-.33l-.119,1.996Zm10.344.696c1.703.126,3.424.259,5.163.398l.159-1.994c-1.742-.139-3.467-.272-5.174-.398l-.148,1.994Zm10.335.822c1.704.144,3.425.292,5.162.445l.175-1.992c-1.739-.153-3.462-.302-5.169-.446l-.168,1.993Zm10.332.908c1.705.155,3.425.314,5.16.475l.186-1.991c-1.737-.162-3.458-.321-5.165-.476l-.181,1.992Zm10.328.961c1.707.161,3.427.325,5.163.492l.19-1.991c-1.736-.167-3.457-.331-5.164-.492l-.189,1.991Zm10.327.987c1.71.165,3.433.331,5.17.498l.191-1.991c-1.736-.167-3.46-.333-5.17-.498l-.191,1.991Zm10.331.993c.859.083,1.722.165,2.588.248l.19-1.991c-.866-.083-1.728-.165-2.587-.247l-.191,1.99Z"/><g id="eUBeZrVEMNR10_to" transform="translate(385.838852,533.228577)"><g id="eUBeZrVEMNR10_tr" transform="rotate(0)"><g transform="translate(-386.838852,-531.228577)"><path d="M321.163,530.642l43.651,43C374.31,562,392.31,545.5,399.31,527.5c1-13-13-25.5-16.5-47-1.5-21.5-5.5-50,3.5-50c16.5,7,9.999,28,9.999,56.5c5.031-1.161,15.378-17.072,26.956-34c17.283-25.27,37.31-52.805,46.487-36.914.683.719,1.213,1.837,1.56,3.414c1,7-12.5,35-17.5,39.5c1.5,4,6,23,1.5,34-8.096,12.608-15.134,32.753-22.322,54.5-19.893,60.186-40.93,132.636-88.676,91.5-21.801-20.5-39-31.5-39-31.5c10.475-17.168,8.999-46.5-3.001-63c0-5,7.5-11,18.85-13.858Z" fill="#fff"/><path d="M344.314,639c-12.502-26.5-1.349-43,20.5-65.358M344.314,639c-21.801-20.5-39-31.5-39-31.5c10.475-17.168,8.999-46.5-3.001-63c0-5,7.5-11,18.85-13.858l43.651,43M344.314,639c64.998,56,80.498-98.5,110.998-146c4.5-11,0-30-1.5-34M364.814,573.642C374.31,562,392.31,545.5,399.31,527.5c1-13-13-25.5-16.5-47-1.5-21.5-5.5-50,3.5-50c16.5,7,9.999,28,9.999,56.5c13.001-3,61.501-104.5,75.003-67.5m-17.5,39.5c-2.806-7.479,4.5-31.3,1.5-34-2-1.8-21.189,15-7,52.5m5.5-18.5c5-4.5,18.5-32.5,17.5-39.5m-23,58c3.784,10-11.393,19.443-19.5,32.5-9.957,16.036-10.5,34,4.178,37.5m15.322-70c-3.502-4-4.184-2-16.502-16.5m39.502-41.5c-5.002-4-16.502,17-16.948,22.5m16.948-22.5C466.81,399,431.257,456,431.81,461m0,0c-3-3-4.317-5.5-8.545-8m20.244,5.5c-1.199,1.5-3.699,4.5-5.82,9.5" fill="#fff" stroke="#000"/></g></g></g><g id="eUBeZrVEMNR13" transform="matrix(1.060844 0 0 1.060844-46.075001-22.682339)"><line x1="774.719" y1="367.083" x2="772.893" y2="388.09" fill="none" stroke="#000" stroke-width="2" stroke-linecap="round"/><path d="M769.31,361c-5.7,5.4-19,18-19,18" fill="none" stroke="#000" stroke-width="2" stroke-linecap="round"/><path d="M765.31,357.5h-25.5" fill="none" stroke="#000" stroke-width="2" stroke-linecap="round"/></g><path d="M457.809,77.9981l118.858.0016" fill="none" stroke="#000" stroke-width="2"/><path d="M575.742,78l480.568-.0059" fill="none" stroke="#000" stroke-width="2"/><path d="M453.799,514.994l321.502.002m121.699,0h112" fill="none" stroke="#000" stroke-width="2"/><path d="M434.81,99.5v153.5" fill="none" stroke="#000" stroke-width="2"/><path d="M435.1,350v80.5" fill="none" stroke="#000" stroke-width="2"/><path d="M1076.31,98.5h10v125.245l-10,7.273v-132.518Z" stroke="#000"/><path d="M1076.31,409.035v-95.157l10-4.13v103.096c-2.3-2.003-4.9-2.927-10-3.809Z" stroke="#000"/><path d="M1076.31,496.857v-18.103c.99-5.551,2.23-9.413,3.94-12.683c1.55-2.955,3.5-5.448,6.06-8.282v39.068h-.02-.02-.03-.02-.03-.03-.02-.03-.02-.03-.02-.03-.02-.03-.02-.03-.02-.03-.02-.03-.02-.02-.03-.02-.03-.02-.03-.02-.03-.02-.02-.03-.02-.03-.02-.03-.02-.02-.03-.02-.03-.02-.02-.03-.02-.02-.03-.02-.03-.02-.02-.03-.02-.02-.03-.02-.02-.03-.02-.02-.03-.02-.02-.03-.02-.02-.03-.02-.02-.02-.03-.02-.02-.03-.02-.02-.02-.03-.02-.02-.02-.03-.02-.02-.02-.03-.02-.02-.02-.03-.02-.02-.02-.03-.02-.02-.02-.02-.03-.02-.02-.02-.02-.03-.02-.02-.02-.02-.02-.03-.02-.02-.02-.02-.03-.02-.02-.02-.02-.02-.02-.03-.02-.02-.02-.02-.02-.02-.03-.02-.02-.02-.02-.02-.02-.02-.03-.02-.02-.02-.02-.02-.02-.02-.02-.02-.03-.02-.02-.02-.02-.02-.02-.02-.02-.02-.02-.02-.03-.02-.02-.02-.02-.02-.02-.02-.02-.02-.02-.02-.02-.02-.02-.02-.02-.02-.03-.02-.02-.02-.02-.02-.02-.02-.02-.02-.02-.02-.02-.02-.02-.02-.02-.02-.02-.02-.02-.02-.02-.02-.02-.02-.02-.02-.02-.02-.02-.02-.02-.02-.02-.02-.02-.02-.02-.02-.02-.02-.02-.02-.02-.02-.02-.02-.02-.02-.02-.02-.02-.02-.02-.02-.02-.02-.02-.02-.02-.02-.02-.02-.02-.02-.02-.02-.02-.02-.02-.01-.02-.02-.02-.02-.02-.02-.02-.02-.02-.02-.02-.02-.02-.02-.02-.02-.02-.02-.02-.02-.02-.02-.02-.02-.02-.02-.02-.02-.02-.02-.02-.01-.02-.02-.02-.02-.02-.02-.02-.02-.02-.02-.02-.02-.02-.02-.02-.02-.02-.02-.02-.02-.02-.02-.02-.02-.02-.02-.02-.02-.02-.02-.02-.02-.02-.02-.02-.01-.02-.02-.02-.02-.02-.02-.02-.02-.02-.02-.02-.02-.02-.02-.02-.02-.02-.02-.02-.02-.02-.02-.02-.02-.02-.02-.02-.02-.02-.02-.02-.02-.02-.02-.02-.02-.02-.02-.02-.02-.02-.02-.03-.02-.02-.02-.02-.02-.02-.02-.02-.02-.02-.02-.02-.02-.02-.02-.02-.02-.02-.02-.02-.02-.02-.02-.03-.02-.02-.02-.02-.02-.02-.02-.02-.02-.02-.02-.02-.02-.03-.02-.02-.02-.02-.02-.02-.02-.02-.02-.02-.03-.02-.02-.02-.02-.02-.02-.02-.03-.02-.02-.02-.02-.02-.02-.02-.03-.02-.02-.02-.02-.02-.03-.02-.02-.02-.02-.02-.03-.02-.02-.02-.02-.02-.03-.02-.02-.02-.02-.03-.02-.02-.02-.02-.03-.02-.02-.02-.03-.02-.02-.02-.02-.03-.02-.02-.02-.03-.02-.02-.02-.03-.02-.02-.01Z" stroke="#000"/><g mask="url(#eUBeZrVEMNR28)"><g><circle r="150" transform="translate(991.81 232)" fill="#fabd03" fill-opacity="0.75"/></g><mask id="eUBeZrVEMNR28" mask-type="alpha"><rect width="234" height="231" rx="0" ry="0" transform="translate(841.81 150)" fill="#c4c4c4"/></mask></g><path id="eUBeZrVEMNR30" d="M861.81,242.5c-21.142998-25.662812,0-3.133234-20.71175-25.662813" transform="matrix(1.036527 0 0 1.097297-27.821046-16.243393)" fill="none" stroke="#000" stroke-width="2" stroke-linecap="round" stroke-dasharray="5,5"/><path d="M1076.22,98.1304c-2.47-11.8473-11.34-19.323-19.41-19.6256c0-.1041,0-.1758,0-.2511c0-.0185,0-.0372,0-.0567c0-.1393,0-.3156,0-.7175c20.45-.7391,29.13,12.7744,29.49,20.6513l-10.08-.0004Z" stroke="#000"/><path d="M1074.81,431c4.68,3.5,7.28,4.5,13,6.5v4c-6.76-.5-8.32-.5-13,3.5v-14Z"/><path d="M434.81,99.5c0-10.6463,12.855-21.5,23-21.5" fill="none" stroke="#000" stroke-width="2"/><path d="M1086.3,497.5c-.23,4.83-3.69,9.482-9.12,12.71-5.17,3.07-12.06,4.804-19.41,4.138c4.32-1.821,8.34-3.701,11.53-6.122c3.53-2.682,6.08-6.042,6.93-10.726h10.07Z" stroke="#000"/><ellipse rx="8.71399" ry="34.3266" transform="matrix(.793514-.608552 0.608552 0.793514 904.842106 260.362477)"/><circle r="12.5" transform="translate(475.31 116.5)" fill="#ea4235" stroke="#000" stroke-width="1.5"/><circle r="12.5" transform="translate(471.31 116.5)" fill="#ea4235" stroke="#000" stroke-width="1.5"/><circle r="12.5" transform="translate(513.31 116.5)" fill="#4286f5" stroke="#000" stroke-width="1.5"/><circle r="12.5" transform="translate(509.31 116.5)" fill="#4286f5" stroke="#000" stroke-width="1.5"/><circle r="12.5" transform="translate(551.31 116.5)" fill="#fff" stroke="#000" stroke-width="1.5"/><circle r="12.5" transform="translate(547.31 116.5)" fill="#fff" stroke="#000" stroke-width="1.5"/><line x1="435.81" y1="148.5" x2="1075.81" y2="148.5" fill="none" stroke="#000" stroke-width="3"/><line x1="435.81" y1="148.5" x2="1075.81" y2="148.5" fill="none" stroke="#fff" stroke-width="3" stroke-opacity="0.5"/><path d="M887.501,235.384c-25.308,18.462-48,36.5-105.691,43.539c27.191,22.962,45,46.077,54,62.577c12-17,55.5-54.5,84.691-68.116-10-18-18.5-30-33-38Z" fill="#e5eae4"/><path d="M850.769,371.251c21.787-54.394,72.269-88.247,72.269-88.247s.49-3.496-3.008-9.996c0,0-51.492,27.358-84.261,68.243c3.499,6.5,15,30,15,30Z" fill="#c0c8c1"/><path d="M850.31,371.5c21.787-54.394,72.728-88.496,72.728-88.496s.771-3.503-2.728-10.004" fill="none" stroke="#000"/><ellipse rx="22.8444" ry="80.3968" transform="matrix(.809327-.587359 0.587359 0.809327 800.967968 338.210602)"/><path d="M823.094,322.369c13.821,19.044,23.831,38.076,28.851,53.441c2.511,7.684,3.764,14.424,3.637,19.775-.127,5.361-1.633,9.23-4.526,11.329-2.893,2.1-7.038,2.332-12.174.791-5.127-1.538-11.146-4.819-17.674-9.588-13.051-9.536-28.042-24.954-41.863-43.998s-23.832-38.077-28.852-53.441c-2.511-7.685-3.764-14.424-3.637-19.776.127-5.36,1.633-9.229,4.527-11.329c2.893-2.099,7.038-2.332,12.174-.791c5.127,1.539,11.146,4.819,17.673,9.589c13.051,9.536,28.043,24.953,41.864,43.998Z" fill="none" stroke="#000"/><path d="M826.206,335.823c-9.429-12.358-13.717-17.641-23.146-30l-17,15.354l21,27.5l19.146-12.854Z" fill="#c4cac3" stroke="#000"/><ellipse rx="7.64489" ry="17.4569" transform="matrix(.808634-.588312 0.588312 0.808634 795.261954 335.613706)" fill="#fefefc" stroke="#000"/><path d="M781.81,278.923c57.691-7.039,80.383-25.077,105.691-43.539c14.5,8,23,20,33,38" fill="none" stroke="#000"/><path d="M192.312,279c19,1,31.5,23,31.5,35.5L140.31,399c0,23.5,2.5,44,2.5,64-10.5,4-19.5,9-29.5,18-16.5002-4.5-73.9999-17.5-80.9992-20-3-16.5,10.5-32.5,10.5-42.5-11.0006,0-27.0006,21-21.9998,40c.4703,1.787-1.4997,0-10.4997-2.5l-7.60835-1.512c0,0-5.94546-35.741,38.60875-60.988c29.9999-17,56.5-47,61.5003-67c5-20,22.027-44.958,39.5-49.5c16.502-4.29,31,1,50,2Z" fill="#ea4235" fill-opacity="0.75"/><ellipse rx="15.5" ry="33.5429" transform="matrix(.93-.36756 0.36756 0.93 1046.550032 291.891655)"/><path d="M975.31,350.819c-9.5-14.819-39-61.319-45-66.819c4.5-3,15-10.181,22-14c6,5.5,36,54.181,45.5,69-3.5,6.5-13.288,12.771-22.5,11.819Z" fill="#ea4235" stroke="#000" stroke-width="2" stroke-linecap="round"/><path d="M975.81,249.5c-4.899,10.5-48.5,36-48.5,36c3-7-29-53.5-41-53c0,0,37.498-32,48.499-36.5s45.9,43,41.001,53.5Z" fill="#ea4235"/><path d="M927.31,285.5l-.919-.394-1.196,2.789l2.62-1.532-.505-.863Zm-41-53l-.649-.761-2.204,1.881l2.894-.121-.041-.999Zm41,53c.505.863.505.863.505.863.001,0,.001-.001.002-.001.001-.001.003-.002.006-.004.005-.003.013-.008.024-.014.021-.012.053-.031.095-.055.083-.049.206-.122.367-.217.322-.19.794-.47,1.397-.83c1.204-.719,2.93-1.758,5.016-3.038c4.171-2.559,9.786-6.082,15.556-9.935c5.767-3.851,11.705-8.042,16.517-11.937c2.405-1.947,4.542-3.832,6.24-5.572c1.684-1.725,2.997-3.369,3.682-4.837l-1.813-.846c-.54,1.157-1.661,2.607-3.3,4.286-1.624,1.664-3.696,3.494-6.068,5.414-4.742,3.84-10.623,7.992-16.368,11.829-5.743,3.834-11.335,7.343-15.492,9.893-2.078,1.275-3.797,2.31-4.996,3.026-.599.358-1.069.636-1.388.825-.16.094-.282.166-.364.214-.041.024-.072.043-.092.055-.011.006-.018.01-.024.013-.002.002-.004.003-.005.004-.001,0-.001,0-.002.001c0,0,0,0,.505.863Zm49.407-35.577c.755-1.619.686-3.781.166-6.137-.529-2.394-1.566-5.167-2.96-8.133-2.792-5.937-7.079-12.778-11.851-19.129-4.772-6.348-10.063-12.256-14.883-16.305-2.407-2.022-4.735-3.614-6.852-4.556-2.092-.931-4.156-1.304-5.907-.589l.758,1.852c.999-.409,2.432-.283,4.336.564c1.877.835,4.042,2.298,6.378,4.26c4.665,3.919,9.854,9.7,14.571,15.976c4.715,6.274,8.921,12.996,11.64,18.778c1.36,2.893,2.332,5.518,2.817,7.714.493,2.234.444,3.853-.026,4.859l1.813.846ZM886.31,232.5c.649.761.649.761.649.76.001,0,.001,0,.001-.001.002-.001.003-.002.005-.004.005-.004.012-.01.021-.017.018-.015.044-.038.08-.068.071-.061.176-.151.315-.268.276-.235.684-.58,1.207-1.022c1.045-.882,2.551-2.148,4.393-3.682c3.683-3.067,8.709-7.203,14.076-11.478c5.369-4.277,11.073-8.687,16.116-12.306c5.074-3.641,9.389-6.415,12.015-7.488l-.758-1.852c-2.875,1.177-7.372,4.091-12.423,7.715-5.082,3.647-10.815,8.08-16.196,12.366-5.382,4.287-10.419,8.433-14.11,11.506-1.846,1.537-3.355,2.806-4.404,3.691-.524.443-.933.789-1.211,1.025-.139.118-.245.209-.317.27-.035.03-.062.053-.081.069-.009.007-.016.013-.02.017-.003.002-.004.004-.006.005c0,0-.001.001-.001.001s0,0,.649.761Zm41.919,53.394c.283-.661.322-1.447.242-2.248-.082-.817-.298-1.746-.616-2.754-.635-2.018-1.715-4.464-3.111-7.157-2.795-5.392-6.918-11.89-11.503-18.139-4.584-6.248-9.654-12.283-14.353-16.736-2.348-2.225-4.627-4.079-6.725-5.366-2.073-1.271-4.095-2.068-5.895-1.993l.083,1.998c1.2-.05,2.803.496,4.766,1.7c1.936,1.188,4.103,2.94,6.395,5.113c4.583,4.343,9.575,10.277,14.116,16.467c4.541,6.188,8.605,12.597,11.341,17.876c1.37,2.643,2.392,4.975,2.979,6.838.293.932.469,1.719.532,2.352.065.65.003,1.047-.089,1.261l1.838.788Z"/><path d="M971.81,233c0,0-13.31-20-21.5-29c6.19-4,15.523,1.239,20.19,8.5c4.5,7,1.31,20.5,1.31,20.5Z" fill="#ea4235" stroke="#000" stroke-width="2"/><path d="M932.31,286.5c-14,8-26,26-35,18c3.5-3.5,15.5-14.5,28.5-23c2,4,3.588,3.449,6.5,5Z" fill="#fff" stroke="#000"/><path d="M923.31,246c6.908-3.947,22.545,5.743,44.5,11.417c2-11.417,43-1.917,66.5,3.583c8.5,1.5,27.5,14.5,27.5,37.5-23.5,12.5-71,35.617-68,33.5-20-27,1-35-21.5-54.5-64,6.5-52.5-29.5-49-31.5Z" fill="#fff"/><path d="M989.81,261c-33.5-2-57.466-20.162-66.5-15-3.5,2-15,38,49,31.5c22.5,19.5,1.5,27.5,21.5,54.5-3,2.117,44.5-21,68-33.5c0-23-19-36-27.5-37.5-23.5-5.5-64.5-15-66.5-3.583" fill="none" stroke="#000" stroke-width="2"/><path d="M926.221,295.714C939.811,317.5,946.9,327.786,962.81,348c56-30.5,34.5-103.5-36.589-52.286Z" fill="#fff" stroke="#000" stroke-width="2"/><path d="M932.81,305.5c31.5,3,41.706-12.044,51-23" fill="none" stroke="#000" stroke-width="2" stroke-linecap="round"/><path d="M950.31,331.5c28.5-6.5,39.5-32,41.5-41" fill="none" stroke="#000" stroke-width="2" stroke-linecap="round"/><path d="M930.81,284l3.894,5.553" fill="none" stroke="#000" stroke-width="2"/><path d="M1126.48,177.625C1115.31,204,1080.31,238.5,1032.31,260.5c19-1.5,42,35.5,27.83,60.5c45-20,100.5-60.5,115.17-93.375-10-24.125-28-37.625-48.83-50Z" fill="#fff"/><path d="M1032.31,260.5c48-22,83-56.5,94.17-82.875M1060.14,321c45-20,100.5-60.5,115.17-93.375" fill="none" stroke="#000" stroke-width="2" stroke-linecap="round"/><path d="M198.432,296.258c-9.625,19.33-28.125,42.83-58,66-28.625-14.67-32.125,34.83-1.625,24.83c0,2.5-1.5,6.5,1.626,11c29.875,32.5,94.374,29,94.374-17.5c0-17.213-17-81.5-31-92.5c5,10,5,32-3,32-6.5,0-.5-13-2.375-23.83Z" fill="#fff"/><path d="M216.133,323.182c-3.94,1.497-8.284,1.541-7.536.459.652-.943,3.368-2.998,6.381-4.271c4.184-1.767,7.974-2.603,6.829-1.782-1.968,1.414-4.089,2.909-5.674,5.594Z" stroke="#000" stroke-width="2"/><path d="M185.582,325.212c-3.57.679-6.436,1.055-6.721.112-.286-.943,2.835-2.656,5.576-3.299c3.806-.892,6.347-.448,6.484.024.138.472-1.77,2.485-5.339,3.163Z" stroke="#000" stroke-width="2"/><path d="M204.261,333.379c-.954,8.709.092,15.919,10.046,24.709c1.5,1.325,5,6.5-2.5,11" fill="none" stroke="#000" stroke-width="2"/><path d="M177.718,343.096c3.589-3.008,7.089-3.008,11-2" fill="none" stroke="#000" stroke-width="2" stroke-linecap="round"/><path d="M189.808,383.089c-1,0,8.499,12.499,17.499,0c0,0-16.5-.001-17.499,0Z" fill="none" stroke="#000" stroke-width="2" stroke-linecap="round"/><path d="M123.333,367c4.777,7.447,7.053,8.447,14.777,8.447-1,3-2,4-4.5,5.5" fill="none" stroke="#000" stroke-width="2" stroke-linecap="round"/><path d="M140.432,362.258c-28.625-14.67-32.125,34.83-1.625,24.83M204.31,288c13.999,11,30.497,75.375,30.497,92.588c0,46.5-64.499,50-94.374,17.5-3.126-4.5-1.626-8.5-1.626-11m0,0c2.5-1.5,3-2,4-4" fill="none" stroke="#000" stroke-width="2"/><circle r="29" transform="translate(238.81 341)" fill="#e6ebe5" stroke="#000" stroke-width="2"/><g mask="url(#eUBeZrVEMNR79)"><g><circle r="30" transform="translate(238.81 341)"/></g><mask id="eUBeZrVEMNR79" mask-type="alpha"><rect width="34.5995" height="45.388" rx="0" ry="0" transform="matrix(.985172-.171567 0.171567 0.985172 208.627922 343.93006)" fill="#c4c4c4"/></mask></g><circle r="29" transform="translate(245.81 340)" fill="#c1c9c2" stroke="#000" stroke-width="2"/><path d="M251.906,363.214c-33.547,6.013-45.703-41.397-5.686-50.024c40.017-8.626,50.325-10.06,50.325-10.06-19.286,22.207-3.609,44.186,10.215,48.744c0,0-21.307,5.326-54.854,11.34Z" fill="#e6ebe5" stroke="#000" stroke-width="2"/><path d="M482.81,346c-46.5,7.112-72.5-93-16.5-106.5s29-5,29-5c-43,28-24.999,102.5,24.498,104.5c0,0,9.501-.112-36.998,7Z" fill="#e6ebe5" stroke="#000" stroke-width="2"/><path d="M390.734,357.865C345.329,365.247,323.31,276,377.31,264.5s67.999-13,67.999-13c-23.999,39,0,81.5,19.501,91.5c0,0-28.67,7.482-74.076,14.865Z" fill="#e6ebe5" stroke="#000" stroke-width="2"/><path d="M305.648,366.619c-35.928,5.76-53.954-67.575-11.242-76.656c42.711-9.08,53.793-10.22,53.793-10.22-18.762,31.829.529,66.839,16.045,75.167c0,0-22.667,5.95-58.596,11.709Z" fill="#e6ebe5" stroke="#000" stroke-width="2"/><path d="M372.31,266c-69.5,22-28,106,15,92-34.5,6-66.5-70.5-15-92Z" fill="#e6ebe5" stroke="#000" stroke-width="2"/><g mask="url(#eUBeZrVEMNR90)"><g><path d="M251.906,363.214c-33.547,6.013-45.703-41.397-5.686-50.024c40.017-8.626,50.325-10.06,50.325-10.06-19.286,22.207-3.609,44.186,10.215,48.744c0,0-21.307,5.326-54.854,11.34Z" fill="#c1c9c2" stroke="#000" stroke-width="2"/></g><mask id="eUBeZrVEMNR90" mask-type="alpha"><rect width="64.518" height="45.388" rx="0" ry="0" transform="matrix(.985172-.171567 0.171567 0.985172 220.219947 341.911091)" fill="#c4c4c4"/></mask></g><g mask="url(#eUBeZrVEMNR95)"><g><path d="M305.646,366.619c-35.928,5.76-53.954-67.575-11.243-76.656c42.712-9.08,53.794-10.22,53.794-10.22-18.762,31.829.529,66.839,16.045,75.167c0,0-22.668,5.95-58.596,11.709Z" fill="#c1c9c2" stroke="#000" stroke-width="2"/></g><mask id="eUBeZrVEMNR95" mask-type="alpha"><rect width="111.282" height="45.388" rx="0" ry="0" transform="matrix(.985172-.171567 0.171567 0.985172 269.485907 333.331088)" fill="#c4c4c4"/></mask></g><g mask="url(#eUBeZrVEMNR100)"><g><path d="M372.31,266c-69.5,22-28,106,15,92-34.5,6-66.5-70.5-15-92Z" stroke="#000" stroke-width="2"/></g><mask id="eUBeZrVEMNR100" mask-type="alpha"><rect width="50.7457" height="45.388" rx="0" ry="0" transform="matrix(.985172-.171567 0.171567 0.985172 334.844916 321.949102)" fill="#c4c4c4"/></mask></g><g mask="url(#eUBeZrVEMNR105)"><g><path d="M390.734,357.865C345.329,365.247,323.31,276,377.31,264.5s68-13,68-13c-24,39,0,81.5,19.5,91.5c0,0-28.67,7.482-74.076,14.865Z" fill="#c1c9c2" stroke="#000" stroke-width="2"/></g><mask id="eUBeZrVEMNR105" mask-type="alpha"><rect width="119.041" height="45.388" rx="0" ry="0" transform="matrix(.985172-.171567 0.171567 0.985172 346.687942 319.887108)" fill="#c4c4c4"/></mask></g><g mask="url(#eUBeZrVEMNR110)"><g><path d="M482.945,345.97c-45.356,6.927-72.341-93.036-16.521-106.495c55.819-13.46,28.907-4.98,28.907-4.98-43.848,24.466-24.853,102.467,24.495,104.501c0,0,8.475.047-36.881,6.974Z" fill="#c1c9c2" stroke="#000" stroke-width="2"/></g><mask id="eUBeZrVEMNR110" mask-type="alpha"><rect width="83.2698" height="52.7208" rx="0" ry="0" transform="matrix(.985172-.171567 0.171567 0.985172 436.280912 304.633078)" fill="#c4c4c4"/></mask></g><path d="M564.441,276.327c4.802,30.08-12.053,57.486-37.269,61.511s-49.766-16.771-54.568-46.851s12.054-57.487,37.27-61.512s49.766,16.772,54.567,46.852Z" fill="#fdfffd" stroke="#000" stroke-width="2"/><path d="M557.162,277.575c4.03,25.246-10.119,48.202-31.226,51.572-21.106,3.369-41.699-14.041-45.729-39.288-4.03-25.246,10.119-48.202,31.225-51.572c21.107-3.369,41.7,14.041,45.73,39.288Z" fill="#fdfffd" stroke="#000" stroke-width="2"/><ellipse rx="35.9754" ry="45.9472" transform="matrix(.987497-.157636 0.157636 0.987497 514.578083 285.043837)"/><path d="M413.31,288c4.5-11.5,5.5-16.5,11.95-24.783-3.95-.217-4.95,0-7.45,0-6.951,7.783-10,14.283-14,27c4,0,5.5-.717,9.5-2.217Z" fill="none" stroke="#000" stroke-width="2"/><circle r="33.5" transform="translate(89.4999 191.5)" fill="#ea4235" fill-opacity="0.4"/><path d="M321.31,337l10-1l13,15-10,1.5c-5.077-6.053-7.923-9.447-13-15.5Z" fill="none" stroke="#fff" stroke-width="2"/><g id="eUBeZrVEMNR118_to" transform="translate(103.14259,187.653679)"><g transform="translate(-103.142589,-187.653679)"><g transform="translate(.000001 0)"><line x1="76.6647" y1="233.061" x2="80.6921" y2="226.149" fill="none" stroke="#000" stroke-width="2" stroke-linecap="round"/><line x1="56.8179" y1="211.458" x2="63.7442" y2="207.455" fill="none" stroke="#000" stroke-width="2" stroke-linecap="round"/><line x1="48.0161" y1="181.499" x2="56.0151" y2="181.629" fill="none" stroke="#000" stroke-width="2" stroke-linecap="round"/><line x1="1" y1="-1" x2="9" y2="-1" transform="matrix(-.999988 0.004943 0.004943 0.999988 159.274 186.889)" fill="none" stroke="#000" stroke-width="2" stroke-linecap="round"/><line x1="1" y1="-1" x2="9" y2="-1" transform="matrix(-.86578 0.500425 0.500425 0.86578 150.823 158.278)" fill="none" stroke="#000" stroke-width="2" stroke-linecap="round"/><line x1="1" y1="-1" x2="9" y2="-1" transform="matrix(-.484934 0.874551 0.874551 0.484934 129.249 134.942)" fill="none" stroke="#000" stroke-width="2" stroke-linecap="round"/><line x1="56.9855" y1="154.996" x2="64.3439" y2="158.135" fill="none" stroke="#000" stroke-width="2" stroke-linecap="round"/><line x1="1" y1="-1" x2="9" y2="-1" transform="matrix(-.119128 0.992879 0.992879 0.119128 103.291 128)" fill="none" stroke="#000" stroke-width="2" stroke-linecap="round"/><path d="M73.2641,134.96l4.754,8.225" fill="none" stroke="#000" stroke-width="2" stroke-linecap="round"/><path d="M124.976,168.528C126.81,170,127.31,172.5,127.31,175m-25.333-19.472c8.333.001,12.833,2.472,16.833,6.472" fill="none" stroke="#000" stroke-width="2"/><path d="M127.401,210l-6.591,5.149l24.092,30.841c4.908,1.51,7.908-.99,6.591-5.149L127.401,210Z"/></g><circle r="36.5" transform="translate(102.31 182.5)" fill="#fff" stroke="#000" stroke-width="2"/><circle r="31.5" transform="translate(102.31 182.5)" fill="#fff" stroke="#000" stroke-width="2"/></g></g><g id="eUBeZrVEMNR133_to" transform="translate(1228.310059,152.5)"><g transform="translate(-1228.310059,-152.5)"><rect width="37" height="3" rx="0" ry="0" transform="translate(1209.81 199)" fill="#c4c4c4"/><g><g><g><rect width="37" height="3" rx="0" ry="0" transform="translate(1209.81 199)" fill-opacity="0.5"/><g><g><rect width="37" height="6" rx="0" ry="0" transform="translate(1209.81 202)" fill="#c4c4c4" stroke="#000" stroke-width="2"/><path d="M1247.41,185.563v13h-38v-13c0-3.68-4-10.5-8.99-17.5-6.01-7.5-9.51-17.322-9.51-27c0-24.519,20.5-37.5,37.5-37.5s38,13.981,38,38.5c0,9.678-4,18.5-10,27-3.5,4.959-8.5,10-9,16.5Z" fill="#fff" stroke="#000" stroke-width="2" stroke-linecap="round"/><path d="M1209.81,212.5h6c1,0,1,12.5,12.5,12.5c12,0,12.5-12.5,13.5-12.5h5v-4.5h-37v4.5Z" fill="none" stroke="#000" stroke-width="2"/><path d="M1223.31,213.5c2.5,5.5,8.5,5.5,11,0" fill="none" stroke="#000" stroke-width="2" stroke-linecap="round"/><line x1="1181.18" y1="166.636" x2="1188.13" y2="162.667" fill="none" stroke="#000" stroke-width="2" stroke-linecap="round"/><line x1="1174.81" y1="138" x2="1182.81" y2="138" fill="none" stroke="#000" stroke-width="2" stroke-linecap="round"/><line x1="1182.18" y1="107.657" x2="1189.04" y2="111.773" fill="none" stroke="#000" stroke-width="2" stroke-linecap="round"/><line x1="1" y1="-1" x2="9" y2="-1" transform="matrix(-.868243-.496139-.496139 0.868243 1275.81 168)" fill="none" stroke="#000" stroke-width="2" stroke-linecap="round"/><line x1="1" y1="-1" x2="9" y2="-1" transform="matrix(-1 0 0 1 1282.81 139)" fill="none" stroke="#000" stroke-width="2" stroke-linecap="round"/><line x1="1" y1="-1" x2="9" y2="-1" transform="matrix(-.857493 0.514496 0.514496 0.857493 1275.81 108)" fill="none" stroke="#000" stroke-width="2" stroke-linecap="round"/><line x1="1203.21" y1="89.2" x2="1208.01" y2="95.6" fill="none" stroke="#000" stroke-width="2" stroke-linecap="round"/><line x1="1" y1="-1" x2="9" y2="-1" transform="matrix(-.6 0.8 0.8 0.6 1256.81 89)" fill="none" stroke="#000" stroke-width="2" stroke-linecap="round"/><path d="M1227.33,80v9.5" fill="none" stroke="#000" stroke-width="2" stroke-linecap="round"/></g><circle r="32.5" transform="translate(1228.31 140.5)" fill="#ea4235" fill-opacity="0.4"/><path d="M1207.31,120.5c2.5-3,4.5-4.5,8.62-5.669" fill="none" stroke="#000" stroke-width="3" stroke-linecap="round"/><path d="M1200.74,131.342c.57-1.842,1.07-2.842,2.57-4.342" fill="none" stroke="#000" stroke-width="3" stroke-linecap="round"/></g></g><line x1="1223.31" y1="194" x2="1223.31" y2="148" fill="none" stroke="#000" stroke-width="3"/><line x1="1234.31" y1="194" x2="1234.31" y2="148" fill="none" stroke="#000" stroke-width="3"/><path d="M1220.81,145h16m-21,2h26" fill="none" stroke="#000" stroke-width="2"/><path d="M1223.81,164v-25" fill="none" stroke="#000" stroke-width="2"/><ellipse rx="8.5" ry="8" transform="translate(1215.31 139)" fill="none" stroke="#000" stroke-width="2"/><ellipse rx="8.5" ry="8" transform="translate(1242.31 139)" fill="none" stroke="#000" stroke-width="2"/></g><path d="M1234.06,163.999L1233.81,139" fill="none" stroke="#000" stroke-width="2"/></g></g></g><line x1="1037" y1="762" x2="1341" y2="763" fill="none" stroke="#000" stroke-width="2"/><path d="M1341,763c30.5,0,31,62,0,62" fill="none" stroke="#000" stroke-width="2"/><path d="M1337.5,782.5c14,0,14.5,26-.5,26" fill="none" stroke="#000" stroke-width="2"/><path d="M1037,781.5l300.5,1" fill="none" stroke="#000" stroke-width="2"/><path d="M1037,807.5l300,1" fill="none" stroke="#000" stroke-width="2"/><line x1="1037" y1="824" x2="1341" y2="825" fill="none" stroke="#000" stroke-width="2"/><line x1="1085" y1="794" x2="1319" y2="794" fill="none" stroke="#000" stroke-width="2"/><line x1="1061" y1="793" x2="1078" y2="793" fill="none" stroke="#000" stroke-width="2"/><line x1="1044" y1="793" x2="1056" y2="793" fill="none" stroke="#000" stroke-width="2"/><line x1="0" y1="-1" x2="511.988" y2="-1" transform="matrix(-.999998 0.001953 0.00554 0.999985 609 712)" fill="none" stroke="#000" stroke-width="2"/><path d="M97.0126,712c-51.3645,0-52.2065,62,0,62" fill="none" stroke="#000" stroke-width="2"/><path d="M102.907,731.5c-23.5783,0-24.4203,26,.842,26" fill="none" stroke="#000" stroke-width="2"/><path d="M608.997,730.5l-506.09,1" fill="none" stroke="#000" stroke-width="2"/><path d="M608.997,756.5l-505.248,1" fill="none" stroke="#000" stroke-width="2"/><line x1="0" y1="-1" x2="511.988" y2="-1" transform="matrix(-.999998 0.001953 0.00554 0.999985 609 774)" fill="none" stroke="#000" stroke-width="2"/><line x1="0" y1="-1" x2="394.096" y2="-1" transform="matrix(-1 0 0 1 528.16 744)" fill="none" stroke="#000" stroke-width="2"/><line x1="0" y1="-1" x2="28.6309" y2="-1" transform="matrix(-1 0 0 1 568.58 743)" fill="none" stroke="#000" stroke-width="2"/><line x1="0" y1="-1" x2="20.21" y2="-1" transform="matrix(-1 0 0 1 597.211 743)" fill="none" stroke="#000" stroke-width="2"/><path d="M87.8091,504.5c12.9999-26,74.0019-52.5,117.5009-46c0,0,4.5,0,40,14.5c31.5,8,45.497,35,77,58-16,3-20.5,13.5-20.5,13.5s12.58,13.5,10,38-15,41.5-18,73-3.003,57.5-3.003,57.5h-132.5c2.021-18.52,5.629-76.274,6.242-119.5-15.698-15.207-72.057-24.158-74.1798-.408-.0162.473-.0367.942-.0617,1.408c0-.481.0208-.951.0617-1.408.9571-27.939-13.0575-67.596-2.5601-88.592Z" fill="#4286f5"/><path d="M90.3075,594.5c0-25.5,58.2415-16.5,74.2415-1m-.739-46c1.741,25,0,59,0,87.5m138-90.5c0,0,4.5-10.5,20.5-13.5" fill="none" stroke="#000" stroke-width="2"/><path d="M239.25,482.067c-.135,2.923-1.738,5.689-4.628,8.19-2.892,2.503-7.037,4.709-12.157,6.495-10.238,3.573-24.273,5.438-39.673,4.724-15.4-.713-29.202-3.866-39.066-8.37-4.933-2.252-8.857-4.831-11.504-7.59-2.647-2.758-3.988-5.661-3.853-8.583.136-2.923,1.739-5.689,4.629-8.19c2.892-2.503,7.037-4.709,12.157-6.495c10.237-3.573,24.273-5.438,39.673-4.724c15.399.713,29.202,3.866,39.066,8.37c4.933,2.252,8.856,4.831,11.504,7.59c2.647,2.758,3.988,5.661,3.852,8.583Z" fill="#fff" stroke="#000"/><path d="M109.539,359.138c.254.491.858.682,1.348.428.49-.253.682-.857.428-1.347l-1.776.919ZM179.31,278.5c0-.552-.448-1-1-1-.553,0-1,.448-1,1h2Zm-67.995,79.719c-2.765-5.341-3.761-9.921-3.467-13.922.292-3.994,1.875-7.504,4.426-10.701c5.146-6.452,14.137-11.524,24.061-16.497c9.835-4.927,20.556-9.742,28.772-15.657c8.235-5.929,14.203-13.136,14.203-22.942h-2c0,8.855-5.345,15.54-13.372,21.319-8.046,5.793-18.536,10.5-28.499,15.492-9.874,4.948-19.268,10.192-24.729,17.037-2.753,3.452-4.53,7.335-4.857,11.802-.327,4.46.797,9.409,3.686,14.988l1.776-.919Z" opacity="0.25" fill="#fff"/><path d="M116.913,355.057c-.244.495-.041,1.095.454,1.34.495.244,1.095.041,1.339-.454l-1.793-.886Zm73.391-74.946c.061-.549-.335-1.044-.884-1.105s-1.043.335-1.104.883l1.988.222Zm-71.598,75.832c10.363-20.973,27.107-31.632,41.921-41.16c14.708-9.46,27.817-17.95,29.677-34.672l-1.988-.222c-1.737,15.623-13.879,23.633-28.771,33.212-14.786,9.51-31.995,20.429-42.632,41.956l1.793.886Z" opacity="0.25" fill="#fff"/><path d="M101.81,362.5c-28.509,43.589-67.5,61-18.4931,111.411C58.3089,467.5,55.3092,467,32.3093,461c-.9996-7-.1677-9.632,1.5004-15.5c10.0528-35.365,37.5448-49.045,68.0003-83Z" fill="#fff" fill-opacity="0.25"/><path d="M141.312,424.031c0-3.468,66.001,23.469,65.999,25.969-.001,2.5-.001,10.5.499,17.5.5,5,1.5,17.5,1.5,17.5s-60.7-11-65.2-13c0,0-2.798-44.5-2.798-47.969Z" fill="#fff"/><path d="M139.81,398l4.499,73.966" fill="none" stroke="#000"/><path d="M207.31,417.985c-1,26.515,0,39.515,2,67" fill="none" stroke="#000"/><path d="M140.809,413c.5,7.5-.239,10.283.499,10.5.658.193,18.002,6.032,32.002,11c12.5,4.435,34.5,15.5,33.69,15.038s1-31.038,0-32.538c-40.19,10-65.69-17.5-66.69-19-1.001-1.5.133,9.5.499,15Z"/><path d="M140.809,413c.5,7.5-.239,10.283.499,10.5.658.193,18.002,6.032,32.002,11c12.5,4.435,34.5,15.5,33.69,15.038s1-31.038,0-32.538c-40.19,10-65.69-17.5-66.69-19-1.001-1.5.133,9.5.499,15Z" fill="#fff" fill-opacity="0.2"/><path d="M91.3099,588.5c17.0001-22,66.0001-4,73.5021,5l-1.002,41c33-14,45.5-20,67-34.5c2.5,7.5,3.167,27.207,5.5,51-23,13-134.5,123-134.5,22L91.3099,588.5Z" fill="#fff"/><path d="M163.81,634.5l1.002-41c-7.502-9-56.502-27-73.5021-5L101.81,673m62-38.5c-12.5,10.5-48.001,9.5-62,38.5m62-38.5c33-14,45.5-20,67-34.5c2.5,7.5,3.167,27.207,5.5,51-23,13-134.5,123-134.5,22" fill="none" stroke="#000"/><path d="M241.028,631.991c-.733,9.902-2.864,18.692-5.668,24.889-1.405,3.104-2.944,5.481-4.496,7.027-1.556,1.55-2.978,2.13-4.219,2.038-1.24-.091-2.562-.875-3.872-2.637-1.308-1.758-2.48-4.335-3.412-7.613-1.861-6.542-2.674-15.55-1.94-25.452.733-9.902,2.864-18.692,5.668-24.889c1.404-3.105,2.943-5.482,4.495-7.027c1.556-1.55,2.979-2.13,4.219-2.039c1.241.092,2.562.876,3.873,2.638c1.308,1.757,2.48,4.335,3.412,7.612c1.86,6.543,2.673,15.551,1.94,25.453Z" fill="none" stroke="#ea4235" stroke-width="3"/><path d="M281.395,487.723c-9.585,0-9.585,28.777-32,48C263.31,539,262.226,539,271.81,539c22-20.5,22-51.277,9.585-51.277Z"/><path d="M281.395,487.723c-9.585,0-9.585,28.777-32,48C263.31,539,262.226,539,271.81,539c22-20.5,22-51.277,9.585-51.277Z" fill="#fff" fill-opacity="0.2"/><path d="M227.81,533.042c21-37.542,73.5-17.542,75.498-8.542c0,16-39.998-6.5-57.498,11c28-4.5,41.801,13,39.301,25.5c0,12,.699,18-3.301,21.5-6,27.5-24.414,16.75-29,7.5c0,18.5,11.5,52-16.498,61.042-6.002-51.042-7.002-75.542-8.502-118Z" fill="#fff"/><path d="M285.111,561c2.5-12.5-11.301-30-39.301-25.5c17.5-17.5,57.498,5,57.498-11-1.998-9-54.498-29-75.498,8.542c1.5,42.458,2.5,66.958,8.502,118C264.31,642,252.81,608.5,252.81,590m32.301-29c-7-8-14-20.869-41.5-10m41.5,10c0,12,.699,18-3.301,21.5m0,0c-3-10.5-12.5-24.5-36-14m36,14c-6,27.5-24.414,16.75-29,7.5m9.5-3.5c-8.208-6.715-12.23-2.004-9.5,3.5" fill="none" stroke="#000"/><path d="M375.81,413L219.809,713h13.001l155-300h-12Z" stroke="#000"/><path d="M405.728,409.412L475.81,560h-13.5l-66.5-148l9.918-2.588Z" stroke="#000"/><path d="M408.81,373v-17l-35.5,4.5v17c16.5,22.5,36,1,35.5-4.5Z" stroke="#000"/><path d="M419.811,400.5c0-14.5,3.999-39-10.474-40.5c0,3,0,0-.028,4.962c4.002-.962,2.501,29.576,2.501,39.038c3.501-.962,6-2,8.001-3.5Z" fill="#fff" stroke="#000"/><path d="M366.31,400.5c-2.273-5,8-10,20-9.5v-4c10.5,2,18-4,22.5-13v-9c5,0,3,30.5,3,39-14,6.5-43,2-45.5-3.5Z"/><path d="M366.31,400.5c-2.273-5,8-10,20-9.5v-4c10.5,2,18-4,22.5-13v-9c5,0,3,30.5,3,39-14,6.5-43,2-45.5-3.5Z" fill="#fff" fill-opacity="0.2"/><path d="M366.31,400.5c-2.273-5,8-10,20-9.5v-4c10.5,2,18-4,22.5-13v-9c5,0,3,30.5,3,39-14,6.5-43,2-45.5-3.5Z" fill="none" stroke="#000"/><path d="M366.31,410c24,9,44,6,53.5-1c0-4.5-.001-4,0-8-10.5,5-32,11-53.5-.5v9.5Z" fill="#fff" stroke="#000"/><path d="M371.31,403v9" fill="none" stroke="#000"/><path d="M376.81,405v8" fill="none" stroke="#000"/><path d="M381.81,406v8" fill="none" stroke="#000"/><path d="M386.81,407v8" fill="none" stroke="#000"/><path d="M391.81,407v8.5" fill="none" stroke="#000"/><path d="M396.81,407v8.5" fill="none" stroke="#000"/><path d="M402.81,406v9" fill="none" stroke="#000"/><path d="M408.81,405v9" fill="none" stroke="#000"/><path d="M414.81,403v9" fill="none" stroke="#000"/><path d="M400.31,372v-14h7.5v14c0,3-6,14-15,14c3.5-2,7.5-11,7.5-14Z" fill="#fff"/><circle r="6.5" transform="translate(385.31 370.5)" fill="none" stroke="#fff" stroke-width="2"/><line x1="381.224" y1="367" x2="388.81" y2="374.586" fill="none" stroke="#fff" stroke-width="2" stroke-linecap="round"/><path d="M473.142,830.109c-2.999,0-11.999,12.014,0,12.014h288.489c11.012,0,3.012-12.014,0-12.014h-288.489Z" fill="#e5eae4" stroke="#000"/><path d="M476.453,830C466.5,830,464,842.5,472.5,842.5h66.953c.5-8.5-5.5-8-21-8-9,0-10-4.5-2-4.5h-40Z"/><path d="M574,787.98h11l-20,41.5h-12l21-41.5Z"/><path d="M564.815,828.98l20.494-40.5h77.404l-19.03,40.5h-78.868Z" fill="#e5eae4" stroke="#000"/><path d="M419.266,575.854c-1.176-6.163,3.549-11.874,9.823-11.874h326.878c4.72,0,8.797,3.3,9.78,7.916l43.678,205c1.326,6.222-3.418,12.084-9.78,12.084h-331.428c-4.8,0-8.922-3.411-9.822-8.126l-39.129-205Z"/><path d="M435.171,562.48h327.295c4.458,0,8.316,3.099,9.277,7.452l43.586,197.5c1.309,5.93-3.205,11.548-9.277,11.548h-331.836c-4.536,0-8.439-3.208-9.319-7.658l-39.046-197.5c-1.161-5.873,3.333-11.342,9.32-11.342Z" fill="#e5eae4" stroke="#000"/><path d="M441.83,568.98h315.196c4.199,0,7.839,2.903,8.774,6.996l34.934,153c1.286,5.634-2.995,11.004-8.775,11.004h-317.849c-4.254,0-7.928-2.98-8.806-7.142l-32.28-153c-1.181-5.595,3.088-10.858,8.806-10.858Z" fill="#fff" stroke="#000" stroke-width="2"/><path d="M480.902,656.945l-11.781-54h269.483l12.764,54h-270.466Z" fill="none" stroke="#000"/><path d="M480.902,656.945l-11.781-54h269.483l12.764,54h-270.466Z" fill="none" stroke="#fff" stroke-opacity="0.5"/><circle r="3.5" transform="translate(469 602.98)"/><circle r="3.5" transform="translate(469 602.98)" fill="#fff" fill-opacity="0.5"/><circle r="3.5" transform="translate(469 602.98)" fill="none" stroke="#000"/><circle r="3.5" transform="translate(469 602.98)" fill="none" stroke="#fff" stroke-opacity="0.5"/><circle r="3.5" transform="translate(481 657.445)"/><circle r="3.5" transform="translate(481 657.445)" fill="#fff" fill-opacity="0.5"/><circle r="3.5" transform="translate(481 657.445)" fill="none" stroke="#000"/><circle r="3.5" transform="translate(481 657.445)" fill="none" stroke="#fff" stroke-opacity="0.5"/><circle r="3.5" transform="translate(605 602.445)"/><circle r="3.5" transform="translate(605 602.445)" fill="#fff" fill-opacity="0.5"/><circle r="3.5" transform="translate(605 602.445)" fill="none" stroke="#000"/><circle r="3.5" transform="translate(605 602.445)" fill="none" stroke="#fff" stroke-opacity="0.5"/><circle r="3.5" transform="translate(751 656.98)"/><circle r="3.5" transform="translate(751 656.98)" fill="#fff" fill-opacity="0.5"/><circle r="3.5" transform="translate(751 656.98)" fill="none" stroke="#000"/><circle r="3.5" transform="translate(751 656.98)" fill="none" stroke="#fff" stroke-opacity="0.5"/><circle r="3.5" transform="translate(738 603.445)"/><circle r="3.5" transform="translate(738 603.445)" fill="#fff" fill-opacity="0.5"/><circle r="3.5" transform="translate(738 603.445)" fill="none" stroke="#000"/><circle r="3.5" transform="translate(738 603.445)" fill="none" stroke="#fff" stroke-opacity="0.5"/><path d="M539.913,733.5l-30.307-157h54.984l31.3,157h-55.977Z" fill="none" stroke="#000"/><path d="M539.913,733.5l-30.307-157h54.984l31.3,157h-55.977Z" fill="none" stroke="#fff" stroke-opacity="0.5"/><g mask="url(#eUBeZrVEMNR381)"><g><line x1="417.646" y1="661.068" x2="559.068" y2="519.646" fill="none" stroke="#000"/><line x1="417.646" y1="661.068" x2="559.068" y2="519.646" fill="none" stroke="#fff" stroke-opacity="0.5"/><line x1="420.475" y1="663.896" x2="561.896" y2="522.475" fill="none" stroke="#000"/><line x1="420.475" y1="663.896" x2="561.896" y2="522.475" fill="none" stroke="#fff" stroke-opacity="0.5"/><line x1="423.303" y1="666.725" x2="564.725" y2="525.303" fill="none" stroke="#000"/><line x1="423.303" y1="666.725" x2="564.725" y2="525.303" fill="none" stroke="#fff" stroke-opacity="0.5"/><line x1="426.132" y1="669.553" x2="567.553" y2="528.132" fill="none" stroke="#000"/><line x1="426.132" y1="669.553" x2="567.553" y2="528.132" fill="none" stroke="#fff" stroke-opacity="0.5"/><line x1="428.96" y1="672.382" x2="570.381" y2="530.96" fill="none" stroke="#000"/><line x1="428.96" y1="672.382" x2="570.381" y2="530.96" fill="none" stroke="#fff" stroke-opacity="0.5"/><line x1="431.789" y1="675.21" x2="573.21" y2="533.789" fill="none" stroke="#000"/><line x1="431.789" y1="675.21" x2="573.21" y2="533.789" fill="none" stroke="#fff" stroke-opacity="0.5"/><line x1="434.617" y1="678.038" x2="576.038" y2="536.617" fill="none" stroke="#000"/><line x1="434.617" y1="678.038" x2="576.038" y2="536.617" fill="none" stroke="#fff" stroke-opacity="0.5"/><line x1="437.445" y1="680.867" x2="578.867" y2="539.445" fill="none" stroke="#000"/><line x1="437.445" y1="680.867" x2="578.867" y2="539.445" fill="none" stroke="#fff" stroke-opacity="0.5"/><line x1="440.274" y1="683.695" x2="581.695" y2="542.274" fill="none" stroke="#000"/><line x1="440.274" y1="683.695" x2="581.695" y2="542.274" fill="none" stroke="#fff" stroke-opacity="0.5"/><line x1="443.102" y1="686.524" x2="584.524" y2="545.102" fill="none" stroke="#000"/><line x1="443.102" y1="686.524" x2="584.524" y2="545.102" fill="none" stroke="#fff" stroke-opacity="0.5"/><line x1="445.931" y1="689.352" x2="587.352" y2="547.931" fill="none" stroke="#000"/><line x1="445.931" y1="689.352" x2="587.352" y2="547.931" fill="none" stroke="#fff" stroke-opacity="0.5"/><line x1="448.759" y1="692.181" x2="590.18" y2="550.759" fill="none" stroke="#000"/><line x1="448.759" y1="692.181" x2="590.18" y2="550.759" fill="none" stroke="#fff" stroke-opacity="0.5"/><line x1="451.587" y1="695.009" x2="593.009" y2="553.588" fill="none" stroke="#000"/><line x1="451.587" y1="695.009" x2="593.009" y2="553.588" fill="none" stroke="#fff" stroke-opacity="0.5"/><line x1="454.416" y1="697.837" x2="595.837" y2="556.416" fill="none" stroke="#000"/><line x1="454.416" y1="697.837" x2="595.837" y2="556.416" fill="none" stroke="#fff" stroke-opacity="0.5"/><line x1="457.244" y1="700.666" x2="598.666" y2="559.244" fill="none" stroke="#000"/><line x1="457.244" y1="700.666" x2="598.666" y2="559.244" fill="none" stroke="#fff" stroke-opacity="0.5"/><line x1="460.073" y1="703.494" x2="601.494" y2="562.073" fill="none" stroke="#000"/><line x1="460.073" y1="703.494" x2="601.494" y2="562.073" fill="none" stroke="#fff" stroke-opacity="0.5"/><line x1="462.901" y1="706.323" x2="604.323" y2="564.901" fill="none" stroke="#000"/><line x1="462.901" y1="706.323" x2="604.323" y2="564.901" fill="none" stroke="#fff" stroke-opacity="0.5"/><line x1="465.73" y1="709.151" x2="607.151" y2="567.73" fill="none" stroke="#000"/><line x1="465.73" y1="709.151" x2="607.151" y2="567.73" fill="none" stroke="#fff" stroke-opacity="0.5"/><line x1="468.558" y1="711.979" x2="609.979" y2="570.558" fill="none" stroke="#000"/><line x1="468.558" y1="711.979" x2="609.979" y2="570.558" fill="none" stroke="#fff" stroke-opacity="0.5"/><line x1="471.386" y1="714.808" x2="612.808" y2="573.387" fill="none" stroke="#000"/><line x1="471.386" y1="714.808" x2="612.808" y2="573.387" fill="none" stroke="#fff" stroke-opacity="0.5"/><line x1="474.215" y1="717.636" x2="615.636" y2="576.215" fill="none" stroke="#000"/><line x1="474.215" y1="717.636" x2="615.636" y2="576.215" fill="none" stroke="#fff" stroke-opacity="0.5"/><line x1="477.043" y1="720.465" x2="618.465" y2="579.043" fill="none" stroke="#000"/><line x1="477.043" y1="720.465" x2="618.465" y2="579.043" fill="none" stroke="#fff" stroke-opacity="0.5"/><line x1="479.872" y1="723.293" x2="621.293" y2="581.872" fill="none" stroke="#000"/><line x1="479.872" y1="723.293" x2="621.293" y2="581.872" fill="none" stroke="#fff" stroke-opacity="0.5"/><line x1="482.7" y1="726.122" x2="624.122" y2="584.7" fill="none" stroke="#000"/><line x1="482.7" y1="726.122" x2="624.122" y2="584.7" fill="none" stroke="#fff" stroke-opacity="0.5"/><line x1="485.529" y1="728.95" x2="626.95" y2="587.529" fill="none" stroke="#000"/><line x1="485.529" y1="728.95" x2="626.95" y2="587.529" fill="none" stroke="#fff" stroke-opacity="0.5"/><line x1="488.357" y1="731.778" x2="629.778" y2="590.357" fill="none" stroke="#000"/><line x1="488.357" y1="731.778" x2="629.778" y2="590.357" fill="none" stroke="#fff" stroke-opacity="0.5"/><line x1="491.186" y1="734.607" x2="632.607" y2="593.186" fill="none" stroke="#000"/><line x1="491.186" y1="734.607" x2="632.607" y2="593.186" fill="none" stroke="#fff" stroke-opacity="0.5"/><line x1="494.014" y1="737.435" x2="635.435" y2="596.014" fill="none" stroke="#000"/><line x1="494.014" y1="737.435" x2="635.435" y2="596.014" fill="none" stroke="#fff" stroke-opacity="0.5"/><line x1="496.842" y1="740.264" x2="638.264" y2="598.842" fill="none" stroke="#000"/><line x1="496.842" y1="740.264" x2="638.264" y2="598.842" fill="none" stroke="#fff" stroke-opacity="0.5"/><line x1="499.671" y1="743.092" x2="641.092" y2="601.671" fill="none" stroke="#000"/><line x1="499.671" y1="743.092" x2="641.092" y2="601.671" fill="none" stroke="#fff" stroke-opacity="0.5"/><line x1="502.499" y1="745.921" x2="643.921" y2="604.499" fill="none" stroke="#000"/><line x1="502.499" y1="745.921" x2="643.921" y2="604.499" fill="none" stroke="#fff" stroke-opacity="0.5"/><line x1="505.328" y1="748.749" x2="646.749" y2="607.328" fill="none" stroke="#000"/><line x1="505.328" y1="748.749" x2="646.749" y2="607.328" fill="none" stroke="#fff" stroke-opacity="0.5"/><line x1="508.156" y1="751.577" x2="649.577" y2="610.156" fill="none" stroke="#000"/><line x1="508.156" y1="751.577" x2="649.577" y2="610.156" fill="none" stroke="#fff" stroke-opacity="0.5"/><line x1="510.984" y1="754.406" x2="652.406" y2="612.985" fill="none" stroke="#000"/><line x1="510.984" y1="754.406" x2="652.406" y2="612.985" fill="none" stroke="#fff" stroke-opacity="0.5"/><line x1="513.813" y1="757.234" x2="655.234" y2="615.813" fill="none" stroke="#000"/><line x1="513.813" y1="757.234" x2="655.234" y2="615.813" fill="none" stroke="#fff" stroke-opacity="0.5"/><line x1="516.641" y1="760.063" x2="658.063" y2="618.641" fill="none" stroke="#000"/><line x1="516.641" y1="760.063" x2="658.063" y2="618.641" fill="none" stroke="#fff" stroke-opacity="0.5"/><line x1="519.47" y1="762.891" x2="660.891" y2="621.47" fill="none" stroke="#000"/><line x1="519.47" y1="762.891" x2="660.891" y2="621.47" fill="none" stroke="#fff" stroke-opacity="0.5"/><line x1="522.298" y1="765.72" x2="663.72" y2="624.298" fill="none" stroke="#000"/><line x1="522.298" y1="765.72" x2="663.72" y2="624.298" fill="none" stroke="#fff" stroke-opacity="0.5"/><line x1="525.127" y1="768.548" x2="666.548" y2="627.127" fill="none" stroke="#000"/><line x1="525.127" y1="768.548" x2="666.548" y2="627.127" fill="none" stroke="#fff" stroke-opacity="0.5"/><line x1="527.955" y1="771.376" x2="669.376" y2="629.955" fill="none" stroke="#000"/><line x1="527.955" y1="771.376" x2="669.376" y2="629.955" fill="none" stroke="#fff" stroke-opacity="0.5"/><line x1="530.783" y1="774.205" x2="672.205" y2="632.784" fill="none" stroke="#000"/><line x1="530.783" y1="774.205" x2="672.205" y2="632.784" fill="none" stroke="#fff" stroke-opacity="0.5"/><line x1="533.612" y1="777.033" x2="675.033" y2="635.612" fill="none" stroke="#000"/><line x1="533.612" y1="777.033" x2="675.033" y2="635.612" fill="none" stroke="#fff" stroke-opacity="0.5"/><line x1="536.44" y1="779.862" x2="677.862" y2="638.44" fill="none" stroke="#000"/><line x1="536.44" y1="779.862" x2="677.862" y2="638.44" fill="none" stroke="#fff" stroke-opacity="0.5"/><line x1="539.269" y1="782.69" x2="680.69" y2="641.269" fill="none" stroke="#000"/><line x1="539.269" y1="782.69" x2="680.69" y2="641.269" fill="none" stroke="#fff" stroke-opacity="0.5"/><line x1="542.097" y1="785.519" x2="683.518" y2="644.097" fill="none" stroke="#000"/><line x1="542.097" y1="785.519" x2="683.518" y2="644.097" fill="none" stroke="#fff" stroke-opacity="0.5"/><line x1="544.926" y1="788.347" x2="686.347" y2="646.926" fill="none" stroke="#000"/><line x1="544.926" y1="788.347" x2="686.347" y2="646.926" fill="none" stroke="#fff" stroke-opacity="0.5"/><line x1="547.754" y1="791.175" x2="689.175" y2="649.754" fill="none" stroke="#000"/><line x1="547.754" y1="791.175" x2="689.175" y2="649.754" fill="none" stroke="#fff" stroke-opacity="0.5"/><line x1="550.582" y1="794.004" x2="692.004" y2="652.583" fill="none" stroke="#000"/><line x1="550.582" y1="794.004" x2="692.004" y2="652.583" fill="none" stroke="#fff" stroke-opacity="0.5"/><line x1="553.411" y1="796.832" x2="694.832" y2="655.411" fill="none" stroke="#000"/><line x1="553.411" y1="796.832" x2="694.832" y2="655.411" fill="none" stroke="#fff" stroke-opacity="0.5"/><line x1="556.239" y1="799.661" x2="697.661" y2="658.239" fill="none" stroke="#000"/><line x1="556.239" y1="799.661" x2="697.661" y2="658.239" fill="none" stroke="#fff" stroke-opacity="0.5"/><line x1="559.068" y1="802.489" x2="700.489" y2="661.068" fill="none" stroke="#000"/><line x1="559.068" y1="802.489" x2="700.489" y2="661.068" fill="none" stroke="#fff" stroke-opacity="0.5"/><line x1="561.896" y1="805.318" x2="703.318" y2="663.896" fill="none" stroke="#000"/><line x1="561.896" y1="805.318" x2="703.318" y2="663.896" fill="none" stroke="#fff" stroke-opacity="0.5"/><line x1="564.725" y1="808.146" x2="706.146" y2="666.725" fill="none" stroke="#000"/><line x1="564.725" y1="808.146" x2="706.146" y2="666.725" fill="none" stroke="#fff" stroke-opacity="0.5"/><line x1="567.553" y1="810.974" x2="708.974" y2="669.553" fill="none" stroke="#000"/><line x1="567.553" y1="810.974" x2="708.974" y2="669.553" fill="none" stroke="#fff" stroke-opacity="0.5"/><line x1="570.381" y1="813.803" x2="711.803" y2="672.381" fill="none" stroke="#000"/><line x1="570.381" y1="813.803" x2="711.803" y2="672.381" fill="none" stroke="#fff" stroke-opacity="0.5"/><line x1="573.21" y1="816.631" x2="714.631" y2="675.21" fill="none" stroke="#000"/><line x1="573.21" y1="816.631" x2="714.631" y2="675.21" fill="none" stroke="#fff" stroke-opacity="0.5"/><line x1="576.038" y1="819.46" x2="717.46" y2="678.038" fill="none" stroke="#000"/><line x1="576.038" y1="819.46" x2="717.46" y2="678.038" fill="none" stroke="#fff" stroke-opacity="0.5"/><line x1="578.867" y1="822.288" x2="720.288" y2="680.867" fill="none" stroke="#000"/><line x1="578.867" y1="822.288" x2="720.288" y2="680.867" fill="none" stroke="#fff" stroke-opacity="0.5"/><line x1="581.695" y1="825.117" x2="723.116" y2="683.695" fill="none" stroke="#000"/><line x1="581.695" y1="825.117" x2="723.116" y2="683.695" fill="none" stroke="#fff" stroke-opacity="0.5"/><line x1="584.524" y1="827.945" x2="725.945" y2="686.524" fill="none" stroke="#000"/><line x1="584.524" y1="827.945" x2="725.945" y2="686.524" fill="none" stroke="#fff" stroke-opacity="0.5"/><line x1="587.352" y1="830.773" x2="728.773" y2="689.352" fill="none" stroke="#000"/><line x1="587.352" y1="830.773" x2="728.773" y2="689.352" fill="none" stroke="#fff" stroke-opacity="0.5"/><line x1="590.18" y1="833.602" x2="731.602" y2="692.18" fill="none" stroke="#000"/><line x1="590.18" y1="833.602" x2="731.602" y2="692.18" fill="none" stroke="#fff" stroke-opacity="0.5"/><line x1="593.009" y1="836.43" x2="734.43" y2="695.009" fill="none" stroke="#000"/><line x1="593.009" y1="836.43" x2="734.43" y2="695.009" fill="none" stroke="#fff" stroke-opacity="0.5"/><line x1="595.837" y1="839.259" x2="737.259" y2="697.837" fill="none" stroke="#000"/><line x1="595.837" y1="839.259" x2="737.259" y2="697.837" fill="none" stroke="#fff" stroke-opacity="0.5"/></g><mask id="eUBeZrVEMNR381" mask-type="alpha"><path d="M539.739,733.5l-30.134-157h54.664l31.122,157h-55.652Z" fill="#c4c4c4"/><path d="M539.739,733.5l-30.134-157h54.664l31.122,157h-55.652Z" fill="none" stroke="#000"/><path d="M539.739,733.5l-30.134-157h54.664l31.122,157h-55.652Z" fill="none" stroke="#fff" stroke-opacity="0.5"/></mask></g><circle r="27.5" transform="translate(877.5 541.5)" fill="#fff" stroke="#000" stroke-width="2"/><circle r="27.5" transform="translate(872.5 541.5)" fill="#fff" stroke="#000" stroke-width="2"/><path d="M768.378,554.596L776.036,536l-1.922,24.503c-.044.563-.514.997-1.078.997-3.559,0-6.013-3.613-4.658-6.904Z" fill="#fff" stroke="#000" stroke-width="2"/><path d="M809.943,613.333l5,27.682c16.491-7.591,57.491-28.091,73.491-38.091c0-10.5-.5-15.5-1.5-21.5-5,5-10.5,8.62-22.5,7.5-37.5-3.5-30.499-57-35-75.5-14-4-38.5-17-45.5-23-4.95,4.95-8.177,35.925-9.918,62.5-1.074,16.381-1.583,31.09-1.582,37c6,12,13.5,26.318,37.509,23.409Z" fill="#fff"/><path d="M809.943,613.333l5,27.682c16.491-7.591,57.491-28.091,73.491-38.091c0-10.5-.5-15.5-1.5-21.5-5,5-10.5,8.62-22.5,7.5-37.5-3.5-30.499-57-35-75.5-14-4-38.5-17-45.5-23-4.95,4.95-8.177,35.925-9.918,62.5-1.074,16.381-1.583,31.09-1.582,37c6,12,13.5,26.318,37.509,23.409Zm0,0c16.49-1.998,17.99-2.909,26.49-8.409" fill="none" stroke="#000" stroke-width="2"/><path d="M790.5,521.426C786,518,783,516,777.5,513.5c-2.716,1.131-3.5,3-3.238,5.074c5.738,2.426,8.238,3.926,13,7.926c2.738,1,4.981-3.747,3.238-5.074Z"/><circle r="3.5" transform="translate(783.5 536.5)"/><path d="M811.192,508.439c-26-4-63.5-59.213-7.506-49.782c1.505-10.431,7.506-18.931,15.005-2.931c19.5-21.5,39.501-6.5,47.501,11c20.5-5,41.499,9.001,34.999,31-10.5,47.5,5.001,88.501-28.499,94.001-14.786,5.202-40-10.5-35.5-45.5-28-3-33.465-26.252-26-37.788Z" stroke="#000" stroke-width="2"/><path d="M803.348,460.641C801,468,798.5,475.5,807,481.5c22.5,12.5,41,7.5,62.5,20.5c11,6.651,8.652,35.359,24.5,47.5" fill="none" stroke="#fff" stroke-width="2" stroke-opacity="0.25" stroke-linecap="round"/><path d="M784.816,476.877C786,483.5,796.5,491.578,806,494c25.5,6.5,39.5,6.346,47.5,20.5c6.5,11.5,10,58,37.5,55" fill="none" stroke="#fff" stroke-width="2" stroke-opacity="0.25" stroke-linecap="round"/><path d="M781.5,466.5c-.5-3.586,4-5.5,6.086-5.5" fill="none" stroke="#fff" stroke-width="2" stroke-opacity="0.25" stroke-linecap="round"/><path d="M833.081,457.874C834,454,842.5,454,844,457.874" fill="none" stroke="#fff" stroke-width="2" stroke-opacity="0.25" stroke-linecap="round"/><circle r="27.5" transform="translate(818.5 553.969)" fill="#fff" stroke="#000" stroke-width="2"/><circle r="27.5" transform="translate(813.5 553.969)" fill="#fff" stroke="#000" stroke-width="2"/><path d="M869.999,465.469c-13,7-35.151,23.999-38.999,64-5.5-3-16.5-4.5-24.348-2c3.847-40,44.847-73,63.347-62Z" fill="#fff" stroke="#000" stroke-width="2"/><path d="M797,554.5c0,9.113,7.387,16.5,16.5,16.5s16.5-7.387,16.5-16.5-7.387-16.5-16.5-16.5" fill="none" stroke="#000" stroke-width="2"/><g id="eUBeZrVEMNR401_to" transform="translate(646.504775,757.499999)"><g id="eUBeZrVEMNR401_tr" transform="rotate(0)"><g transform="translate(-639.086792,-750.780395)"><path d="M599.518,650.066C627.018,641.566,654,668.5,652.5,708c7,9,6.518,22.066,3.018,34.566l12.501,23.5l28.68,22.886c0,0-19.199,23.048-20.68,25.614-1.481,2.567-8.32,22.5,5.499,38.5-20.499-10.5-53-58-75.499-92-4-13.5-1.987-27.856-1.8-35.258-.229.143-.463.232-.7.258-21.234,2.404-35.405-35.317-2.648-40.89c1.479-.555,3.827-.765,7.05-.661c7.134-.192,15.919.845,26.597,3.551c0-15.845-20-22.5-35-24-5-.5-6.965-10.432,0-14Z" fill="#fff"/><path d="M621.321,782.7c2.501,2.5,4.501,4,7.9,9.8c0-6,3.8-11.2,7.9-14-3.399-5.8-5.399-7.3-7.9-9.8-4.1,2.8-7.9,8-7.9,14Z" stroke="#000" stroke-width="2"/><path d="M662.627,751.409c6.671,8.899,5.319,21.018-2.801,27.106-8.12,6.087-20.132,3.986-26.803-4.912-6.672-8.899-5.32-21.019,2.8-27.106s20.133-3.987,26.804,4.912Z" transform="translate(-3.788947-1.894473)" fill="#fff" stroke="#000" stroke-width="2"/><path d="M634.518,688.066c0-15.845-20-22.5-35-24-5-.5-6.965-10.432,0-14C627.018,641.566,654,668.5,652.5,708c7,9,6.518,22.066,3.018,34.566l12.501,23.5l28.68,22.886c0,0-19.199,23.048-20.68,25.614-1.481,2.567-8.32,22.5,5.499,38.5-20.499-10.5-53-58-75.499-92-4-13.5-1.987-27.856-1.8-35.258m30.299-37.742c-14-2.5-30-7.5-6,11m6-11c-39-6.964-45.5-4.5-21.5,14m21.501-14c-73.001-18.5-57.501,41-31,38c3.762-.426,7-16.5-8.501-16.5" fill="none" stroke="#000" stroke-width="2"/><path d="M663.627,748.409c6.671,8.899,5.319,21.018-2.801,27.106-8.12,6.087-20.132,3.986-26.803-4.912-6.672-8.899-5.32-21.019,2.8-27.106s20.133-3.987,26.804,4.912Z" fill="#fff" stroke="#000" stroke-width="2"/><path d="M651.083,757.77c1.024,1.366.763,3.131-.366,3.977-1.128.845-2.895.602-3.919-.764-1.024-1.367-.763-3.131.366-3.977c1.128-.846,2.895-.602,3.919.764Z" fill="none" stroke="#000" stroke-width="2"/></g></g></g><path d="M881.042,816.856C943.52,706.5,1067.02,740.5,1048.02,822l-23,78h-169l25.022-83.144Z" stroke="#000"/><path d="M889.521,816.856C952,706.5,1075.5,740.5,1056.5,822l-23,78h-169l25.021-83.144Z" fill="#e5eae4" stroke="#000"/><path d="M1100.76,761.971c9.984023-118.199715-4.443576-204.933678.359998-237.471c25.5-16.931,43.140002-24.029,74.390002-42.598l71.25-2.931c27,26,71,36,86,65c3,33.5,1.5,46,1.5,82.5-23.5,6-43,8.5-72.96,0c5.98,48.553,16.94,87.099,52.96,135.5h-213.5Z" fill="#109d58" fill-opacity="0.75"/><path d="M1094.43,417.772l-79.88,32.27c-.76.305-.86,1.357-.25,1.901c2.88,2.584,3.51,6.016,3.61,9.812.02.708.74,1.192,1.39.927l81.82-32.947c9.81-4,4.31-17-6.69-11.963Z" fill="#4286f5" stroke="#000" stroke-width="2"/><ellipse rx="12.5068" ry="27" transform="matrix(.535445-.84457 0.84457 0.535445 1031.239923 525.024913)"/><path d="M1007.98,516.207l-31.21,88.887L1017.3,620.5l36-80c-8,8.5-42.5-7.5-45.32-24.293Z" fill="#fff" stroke="#000"/><path d="M1073.5,424.11c1.36,1.21,2.51,2.622,3.39,4.235c2.5,4.616.1,15.153-7.15,23.345c8.74-8.776,14.61-17.429,21.15-12.2c7.5,6-13.5,22.5-13.5,33.5c0,14.5-9,37-33,48-6.65,2.51-11.65,2.51-16.65,2.51h-5.5c-2.5-7.5-2.5-8.51-3.85-15.511l-.5-60.499c5.24-20.008,24.91-29.535,40.5-28.782c10-25.218,45.5,2.782,38,11.282-5.43,7.466-13.17-.042-22.89-5.88Z" fill="#fff"/><path d="M1046.89,420.489c10,5,25.5,13.5,16.5,36.963m0,0c12.5-9.963,19.5-24.362,27.5-17.962c7.5,6-13.5,22.5-13.5,33.5c0,14.5-9,37-33,48-6.65,2.51-11.65,2.51-16.65,2.51m35.65-66.048c-3,12.538-1.5,16.538,1.5,25.038m-35-53.534c16.5-.611,33.5,8.874,24.5,32.337M1027.74,523.5c18-12,7.81-54.002,2.65-63.51c36,12.5,51.66-22.137,46.5-31.645-9.5-17.5-51-11.355-59,19.145l.5,60.499c1.35,7.001,1.35,8.011,3.85,15.511h5.5Zm68.65-93.51c7.5-8.5-28-36.5-38-11.282c17,.782,30,22.282,38,11.282Z" fill="none" stroke="#000"/><path d="M1030.87,442.464l-21.18,8.362c-.58.233-.81.947-.49,1.492c1.92,3.246,3.1,6.708,4.17,10.392.16.566.78.872,1.33.658l21.58-8.421c.1-.039.19-.095.27-.164c6.62-5.627.65-14.011-5.68-12.319Z" fill="#4286f5" stroke="#000" stroke-width="2"/><path d="M988.833,467.175l24.047-3.316c.49-.069.86-.492.86-.991-.07-4.52-.73-8.921-4.97-11.347-.32-.182-.72-.15-1.02.061l-19.628,13.784c-.859.603-.328,1.952.711,1.809Z" stroke="#000" stroke-width="2"/><path d="M996.242,461.004c1.5,2,1.5,2,1.5,4" fill="none" stroke="#e5eae4" stroke-width="3"/><g id="eUBeZrVEMNR419_to" transform="translate(1125.436402,637.12915)"><g id="eUBeZrVEMNR419_tr" transform="rotate(0)"><g transform="translate(-1125.436401,-637.12915)"><g transform="translate(.000001 0)"><path d="M915.668,536.649c-1.127-3.24,1.269-6.626,4.699-6.642l207.453-.949c2.1-.009,3.99,1.301,4.71,3.277l47.37,128.984c1.2,3.263-1.22,6.723-4.69,6.723h-210.304c-2.129,0-4.024-1.347-4.723-3.358L915.668,536.649Z"/><path d="M915.1,541.117c-1.097-3.234,1.298-6.591,4.712-6.607l203.018-.951c2.12-.01,4.02,1.318,4.73,3.313l46.41,129.483c1.17,3.258-1.24,6.687-4.7,6.687h-205.817c-2.142,0-4.047-1.364-4.735-3.393L915.1,541.117Z" fill="#e5eae4"/><path d="M1023.87,534.042c-7.23,49.919-73.725,43.419-90,62.001-7-20.501-16-44.501-19-55.501-.5-3.5,1.999-5.5,4-6c2,0,79.5-.5,105-.5Z" fill="#fff"/><path d="M1335.88,710.745c1.5,12-6,27.053-22.5,34-9.5,4-70.5-19-111.5-43.5c10.5-8.5,27-23.5,19.74-47.94c61.26,33.94,109.2,16.94,114.26,57.44Z" fill="#fff" stroke="#000"/><path d="M1067.74,673.323c-68.871-34.781-69.371-34.781-128.371-60.281c7,20,15,44.5,19.5,57c0,.5,2,3,4,3s79.371.281,104.871.281Z" fill="#c1c9c2"/><ellipse rx="12.5068" ry="27" transform="matrix(.919552 0.392968-.392968 0.919552 1211.109391 676.743004)"/><path d="M1220.5,684.205c-23.29-46.065-33.76-80.447-47.71-117.311-14.5-27-55-16-55,1.5c0,15.2,36.54-2.295,46.91,18.237.31.606-.16,1.328-.84,1.396-31.66,3.157-40.17,18.147-38.72,33.367.51,5.302,2.22,10.632,4.58,15.5c6.43,13.247,17.67,23.069,22.47,19.576.06-.048.12-.11.17-.176c3.08-4.055.94-7.696-1.38-10.189-.37-.403-.36-1.056.05-1.422c14.68-13.071,29.02,36.092,51,52.027.17.122.37.185.58.182c10.87-.135,14.93-7.048,17.84-11.694.19-.299.2-.678.05-.993Z" fill="#fff"/><ellipse rx="14.6232" ry="15.1048" transform="matrix(.970895-.239505 0.239505 0.970895 1039.680093 607.209632)" fill="none" stroke="#000" stroke-width="2"/><path d="M1165.29,601.894c-13.5-2-31.5,3.5-40.15,19.5m42.65,1.5c-9.5-6.5-28.07-.5-38.07,14m43.07-70c13.95,36.864,24.42,71.246,47.71,117.311.15.315.14.694-.05.993-2.91,4.646-6.97,11.559-17.84,11.694-.21.003-.41-.06-.58-.182-21.98-15.935-36.32-65.098-51-52.027-.41.366-.42,1.019-.05,1.422c2.32,2.493,4.46,6.134,1.38,10.189-.05.066-.11.128-.17.176-11.62,8.46-61.05-61.192,11.67-68.443.68-.068,1.15-.79.84-1.396-10.37-20.532-46.91-3.037-46.91-18.237c0-17.5,40.5-28.5,55-1.5Z" fill="none" stroke="#000" stroke-width="2"/></g></g></g></g><path d="M793.878,672.674c-24.5,19.5-36,50-67.373,73.668-4.627,21.332,35.373,59.332,63.873,51.832c6.499,5.5,18.942,59.5,15.942,99.5h49c14.058-34.5,17.558-151.332,140.058-154.5c0-36-10-70.5-31-86.5-19.5-9-37.5-16-52.5-23-50-5.5-95.056,21.692-118,39Z" fill="#fff"/><path d="M793.878,672.674c-24.5,19.5-36,50-67.373,73.668-4.627,21.332,35.373,59.332,63.873,51.832c6.499,5.5,18.942,59.5,15.942,99.5h49c14.058-34.5,17.558-151.332,140.058-154.5c0-36-10-70.5-31-86.5-19.5-9-37.5-16-52.5-23-50-5.5-95.056,21.692-118,39Z" fill="#ea4235" fill-opacity="0.75"/><path d="M790.378,798.174c9-12,18.675-23.674,28.675-34.174m3.5-4c6.5-7,0,0,6.5-7" fill="none" stroke="#000" stroke-width="2"/><path d="M829.086,753.141c-10,10.5-30.175,33.674-39.175,45.674c6.5,5.5,18.942,59.5,15.942,99.5h49.001c15.232-42.174-36.268-72.674-25.768-145.174Z" fill="#ea4235" fill-opacity="0.75"/><path d="M912.053,633.5c-50-5.5-93.556,20.795-116.5,38.103c31.5-4.326,29.676,0,41.676,5.826c31.5-4.326,92.499-11.103,127.324-20.429-20.5-9.5-36-15.5-52.5-23.5Z" fill="#ea4235" fill-opacity="0.75"/><path d="M912.053,633.5c-50-5.5-93.556,20.795-116.5,38.103c31.5-4.326,29.676,0,41.676,5.826c31.5-4.326,92.499-11.103,127.324-20.429-20.5-9.5-36-15.5-52.5-23.5Z" fill="#fff" fill-opacity="0.5"/><path d="M802.553,652c17.5-23,47-48,89.5-51l18.5,31c-46-3-83.5,16-108,33.5v-13.5Z" fill="#fff" stroke="#000" stroke-width="2"/><path d="M810.358,642.235c1.029,6.168,2.724,9.433,5.695,14.265" fill="none" stroke="#ea4235" stroke-width="2" stroke-opacity="0.75"/><path d="M822.364,630.253c.523,8.65,1.712,12.898,6.189,19.247" fill="none" stroke="#ea4235" stroke-width="2" stroke-opacity="0.75"/><path d="M836.364,620.253c-.977,9.65.689,15.747,7.189,22.747" fill="none" stroke="#ea4235" stroke-width="2" stroke-opacity="0.75"/><path d="M851.553,611.5c-1.982,11.5-1,17,5,27" fill="none" stroke="#ea4235" stroke-width="2" stroke-opacity="0.75"/><path d="M885.387,601.903c4,15.5,8,20.5,17.5,30M861.553,607.5l10,27m4-31c1.001,14,6.001,20.5,13.5,29" fill="none" stroke="#ea4235" stroke-width="2" stroke-opacity="0.75"/><path d="M719.553,858.5l60-57.5c-25.884-8.5-47-21.5-52.616-47.68l-50,60c-17.384,42.18,24.116,57.18,42.616,45.18Z" fill="#fff" stroke="#000" stroke-width="2"/><path d="M1182.49,511.91c-36.99-4.41-26.49-23.41-6-33C1203,465.5,1215,458.5,1245,448.5c0,11,0,14,0,28c15.5,16-28,33-62.51,35.41Z" fill="#fff"/><path d="M1263,429c-2.5,16.5-9,18.5-18,6v13l-67.5,44v-39c35.5,4.5,56.5-16,63-29.5l1-21c-14.5,3-26,0-32.5-11-5.02-8.5,6-45,55.5-18.483L1263,429Z" stroke="#000"/><path d="M1166.01,450.767c22.5,10.689,74.71-7.434,74.71-33.434c26.5-7.5,6-37.5-9.5-24.5-2.5,2.097-2.5,6-1.5,9.5-21.5,2-18.72-25.833-10.72-35.833-17.5,0-14,.5-26.28,2.333l-42-24.5c0,36.5-37.21,81.5,15.29,106.434Z" fill="#fff"/><path d="M1240.72,417.333c0,26-52.21,44.123-74.71,33.434-52.5-24.934-15.29-69.934-15.29-106.434l42,24.5C1205,367,1201.5,366.5,1219,366.5c-8,10-10.78,37.833,10.72,35.833-1-3.5-1-7.403,1.5-9.5c15.5-13,36,17,9.5,24.5Zm0,0c-4-1.5-6.5-2.5-10.5-5.5m10,0c-1-3.5-7.5-10-5.5-9s11.5-1.5,13-5.5" fill="none" stroke="#000" stroke-width="2"/><path d="M1159,349c-20.5-17-7-3-27.5-20-38.57-.829-26.58,31.698,1.45,26c5.77-1.173,7.05-1.5,26.05-6Z" stroke="#000" stroke-width="2"/><path d="M1163.7,320.48c43.28-4.134,64.82,24.963,74.24,43.356.71,1.384-.41,2.977-1.96,2.879-14.14-.893-31.2.828-42.3,2.2-.45.055-.9-.043-1.28-.273-23.03-13.821-38.06-22.986-63.8-35.455-1.75-.847-1.4-3.46.5-3.828c12.58-2.426,20.43-4.497,34.2-8.797.13-.041.27-.069.4-.082Z" fill="#fff" stroke="#000" stroke-width="2"/><path d="M1261,364h25c3.5,5.5,3.5,7.5,0,12h-25v-12Z"/><path d="M1259.93,372.603c-14.76-3.906-12.07-3.242-20.15-5.374-.56-.147-1.04-.545-1.3-1.061-22.93-45.567-55.28-47.147-76.67-45.487-1.68.13-2.75-1.764-1.75-3.118c43.58-58.925,124.85-4.959,102.22,53.844-.36.933-1.39,1.451-2.35,1.196Z" fill="#fff"/><path d="M1259.93,372.603c-14.76-3.906-12.07-3.242-20.15-5.374-.56-.147-1.04-.545-1.3-1.061-22.93-45.567-55.28-47.147-76.67-45.487-1.68.13-2.75-1.764-1.75-3.118c43.58-58.925,124.85-4.959,102.22,53.844-.36.933-1.39,1.451-2.35,1.196Z" fill="#109d58" fill-opacity="0.75" stroke="#000" stroke-width="2"/><path d="M1236.36,299.991c-.28-.475-.9-.633-1.37-.352-.48.281-.64.894-.36,1.37l1.73-1.018Zm1.2,66.161c-.19.518.07,1.093.59,1.285.51.193,1.09-.071,1.28-.589l-1.87-.696Zm-2.93-65.143c7.91,13.372,10.24,25.306,9.8,36.041-.43,10.76-3.63,20.366-6.87,29.102l1.87.696c3.26-8.764,6.56-18.621,7-29.718.45-11.121-1.97-23.437-10.07-37.139l-1.73,1.018Z"/><ellipse rx="2.5" ry="4.5" transform="matrix(.942397 0.334496-.334496 0.942397 1160.860359 369.0772)"/><ellipse rx="2.5" ry="4.5" transform="matrix(.942397 0.334496-.334496 0.942397 1189.860419 380.076954)"/><path d="M1151.55,357.168c6.45,6.832,13.95,6.332,21,14" fill="none" stroke="#000" stroke-width="2"/><path d="M1182.32,369.626c6.44,6.832,13.94,6.332,21,14" fill="none" stroke="#000" stroke-width="2"/><path d="M1171,377.5l-9.18,20.449c-1.04,2.311-.18,5.032,1.99,6.336l3.69,2.215" fill="none" stroke="#000" stroke-width="2" stroke-linecap="round"/><path d="M1163.05,412.051c6.95,6.949,12.45,4.949,18,.9" fill="none" stroke="#000" stroke-width="2" stroke-linecap="round"/><line x1="1245" y1="437" x2="1245" y2="478" fill="none" stroke="#000" stroke-width="2" stroke-linecap="round"/><line x1="1178" y1="461" x2="1178" y2="502" fill="none" stroke="#000" stroke-width="2" stroke-linecap="round"/><path d="M1270.5,673.5c30,9.045,54.5,8.824,64,30.824-.39-29.893.39-47.931,0-77.824-23,7.045-39.5,8.045-72.5,0c1.56,17.183,4,29,8.5,47Z" fill="#fff" stroke="#000"/><rect width="113" height="168" rx="2" ry="2" transform="translate(287 675)" fill="#fff"/><rect width="113" height="168" rx="2" ry="2" transform="translate(287 675)" fill="#fabd03"/><rect width="75" height="57" rx="2" ry="2" transform="translate(306 697)" fill="#fff"/><line x1="316" y1="707" x2="371" y2="707" fill="none" stroke="#000" stroke-width="2"/><line x1="316" y1="719" x2="371" y2="719" fill="none" stroke="#000" stroke-width="2"/><line x1="316" y1="730" x2="371" y2="730" fill="none" stroke="#000" stroke-width="2"/><line x1="316" y1="741" x2="371" y2="741" fill="none" stroke="#000" stroke-width="2"/><rect width="36" height="156" rx="0" ry="0" transform="translate(400 681)" fill="#fff"/><line x1="410" y1="678.006" x2="409" y2="840.006" fill="none" stroke="#c1c9c2" stroke-width="2"/><line x1="417" y1="678.006" x2="416" y2="840.006" fill="none" stroke="#c1c9c2" stroke-width="2"/><line x1="424" y1="678.006" x2="423" y2="840.006" fill="none" stroke="#c1c9c2" stroke-width="2"/><path d="M401,678h33c1.105,0,2,.895,2,2v158c0,1.105-.895,2-2,2h-33" fill="none" stroke="#000" stroke-width="5" stroke-linecap="round"/><path d="M115.812,839.715c31.466-9.819,31.466-36,21-53.681h-103.0324c-10.466,17.681-10.4659,43.862,21.0002,53.681h61.0322Z" fill="#fff" stroke="#000" stroke-width="2"/><g mask="url(#eUBeZrVEMNR479)"><g><circle r="40" transform="translate(26 830)"/><circle r="25" transform="translate(26 830)" fill="#fff"/></g><mask id="eUBeZrVEMNR479" mask-type="alpha"><path d="M35.0657,786.534h102.4603c5.088,8.716,7.585,19.433,5.027,29.162-2.569,9.772-10.266,18.647-25.817,23.519h-60.8799c-15.5506-4.872-23.2477-13.747-25.8174-23.519-2.5581-9.729-.0612-20.446,5.027-29.162Z" transform="translate(.000001 0)" fill="#fff" stroke="#000"/></mask></g><g mask="url(#eUBeZrVEMNR485)"><g><circle r="40" transform="translate(130 778)"/><circle r="25" transform="translate(130 778)" fill="#fff"/></g><mask id="eUBeZrVEMNR485" mask-type="alpha"><path d="M114.812,841.715c31.466-9.819,31.466-36,21-53.681h-103.0324c-10.466,17.681-10.4659,43.862,21.0002,53.681h61.0322Z" transform="translate(.000001 0)" fill="#fff" stroke="#000" stroke-width="2"/></mask></g><path d="M34,773h102.5v12L34,785v-12Z" fill="none" stroke="#000" stroke-width="2"/><line x1="33" y1="779" x2="137" y2="779" fill="none" stroke="#000" stroke-width="2"/><path d="M93.6061,772.366c11.4999-22,47.4999-57,59.9999-52c8.5,3.4-15,33-27,52h-32.9999Z" stroke="#000" stroke-width="2"/><path d="M93.6061,772.366c11.4999-22,47.4999-57,59.9999-52c8.5,3.4-15,33-27,52h-32.9999Z" stroke="#000" stroke-width="2"/><path d="M42.6954,772.68c-11.7157-20.698-37.43487-46.754-30-53c8.0652-5.254,49.5652,26.246,58.5651,53h-28.5651Z" stroke="#000" stroke-width="2"/><path d="M42.6954,772.68c-11.7157-20.698-37.43487-46.754-30-53c8.0652-5.254,49.5652,26.246,58.5651,53h-28.5651Z" stroke="#000" stroke-width="2"/><path d="M78.319,658.665c11.5008,0,28.004,67.044,28.004,113.544h-18.502-18.0005c0-45.5-6.0007-113.544,8.4985-113.544Z" fill="#fff"/><path d="M78.319,658.665c7.5008,45.544,7.5008,68.544,9.502,113.544M78.319,658.665c11.5008,0,28.004,67.044,28.004,113.544h-36.5025c0-45.5-6.0007-113.544,8.4985-113.544Z" fill="none" stroke="#000" stroke-width="2"/><path d="M78.319,658.665c11.5008,0,28.004,67.044,28.004,113.544h-18.502-18.0005c0-45.5-6.0007-113.544,8.4985-113.544Z" fill="#109d58" fill-opacity="0.75"/><path d="M78.319,658.665c7.5008,45.544,7.5008,68.544,9.502,113.544M78.319,658.665c11.5008,0,28.004,67.044,28.004,113.544h-36.5025c0-45.5-6.0007-113.544,8.4985-113.544Z" fill="none" stroke="#000" stroke-width="2"/><path d="M34.1553,772.157c-12.102-7.305-23.1553-22.657-20-26c4.3447-3.657,33.398,7.195,49.2936,26h-14.8969-14.3967Z" fill="#fff"/><path d="M14.1553,746.157c-3.1553,3.343,7.898,18.695,20,26h29.2936c-15.8956-18.805-44.9489-29.657-49.2936-26Zm0,0c14.898,8.195,25.398,15.695,34.3967,26" fill="none" stroke="#000" stroke-width="2"/><path d="M34.1553,772.157c-12.102-7.305-23.1553-22.657-20-26c4.3447-3.657,33.398,7.195,49.2936,26h-14.8969-14.3967Z" fill="#109d58" fill-opacity="0.75"/><path d="M14.1553,746.157c-3.1553,3.343,7.898,18.695,20,26h29.2936c-15.8956-18.805-44.9489-29.657-49.2936-26Zm0,0c14.898,8.195,25.398,15.695,34.3967,26" fill="none" stroke="#000" stroke-width="2"/><path d="M63.772,772.406c-15.5578-32.732-50.0579-75.232-41.5582-82c14.0001,0,52.9428,18.268,66.4427,82h-12.4422-12.4423Z" fill="#fff"/><path d="M22.2138,690.406c-8.4997,6.768,26.0004,49.268,41.5582,82h12.4423m-54.0005-82c14.0001,0,52.9428,18.268,66.4427,82h-12.4422m-54.0005-82c27.5004,24.768,40.0004,47.768,54.0005,82" fill="none" stroke="#000" stroke-width="2"/><path d="M63.772,772.406c-15.5578-32.732-50.0579-75.232-41.5582-82c14.0001,0,52.9428,18.268,66.4427,82h-12.4422-12.4423Z" fill="#109d58" fill-opacity="0.75"/><path d="M22.2138,690.406c-8.4997,6.768,26.0004,49.268,41.5582,82h12.4423m-54.0005-82c14.0001,0,52.9428,18.268,66.4427,82h-12.4422m-54.0005-82c27.5004,24.768,40.0004,47.768,54.0005,82" fill="none" stroke="#000" stroke-width="2"/><path d="M136.611,681.143c9.5,4-1.5,71-34,91.224h-12.0004-14.9175c1.4176-25.224,56.4179-94.224,60.9179-91.224Z" fill="#fff"/><path d="M136.611,681.143c9.5,4-1.5,71-34,91.224h-26.9179c1.4176-25.224,56.4179-94.224,60.9179-91.224Zm0,0c-5.5,34.5-48.0002,64.5-46.0004,91.224" fill="none" stroke="#000" stroke-width="2"/><g transform="translate(0 0.000001)"><path d="M136.611,681.143c9.5,4-1.5,71-34,91.224h-12.0004-14.9175c1.4176-25.224,56.4179-94.224,60.9179-91.224Z" fill="#109d58" fill-opacity="0.75"/><path d="M136.611,681.143c9.5,4-1.5,71-34,91.224h-26.9179c2.9853-27.867,56.4179-94.224,60.9179-91.224Zm0,0c-5.5,34.5-48.0002,64.5-46.0004,91.224" fill="none" stroke="#000" stroke-width="2"/></g><path d="M98.4901,771.689c7.2389-13.061,25.7389-37.561,66.7389-37.561-2,17-19.5,30.5-28.261,37.561h-17.739-20.7389Z" fill="#fff"/><path d="M165.229,734.128c-41,0-59.5,24.5-66.7389,37.561h38.4779c8.761-7.061,26.261-20.561,28.261-37.561Zm0,0c-25.5,13-35.5,23.5-46,37.561" fill="none" stroke="#000" stroke-width="2"/><path d="M98.4901,771.689c7.2389-13.061,25.7389-37.561,66.7389-37.561-2,17-19.5,30.5-28.261,37.561h-17.739-20.7389Z" fill="#109d58" fill-opacity="0.75"/><path d="M165.229,734.128c-41,0-59.5,24.5-66.7389,37.561h38.4779c8.761-7.061,26.261-20.561,28.261-37.561Zm0,0c-25.5,13-35.5,23.5-46,37.561" fill="none" stroke="#000" stroke-width="2"/><path d="M1350.79,244.612c3.57-1.355,7.29,1.646,6.71,5.428l-11.65,76.608c-.59,3.817-5.09,5.563-8.09,3.137l-60.81-49.15c-3-2.426-2.24-7.196,1.37-8.564l72.47-27.459Z" fill="#fabd03"/><path d="" fill="none" stroke="rgba(255,255,255,0)" stroke-width="2.848" stroke-opacity="0"/><circle r="25" transform="translate(1372 371)" fill="#4286f5"/><circle r="15" transform="translate(1372 371)" fill="#fff"/><circle r="37.5" transform="translate(262.5 233.5)" fill="#fabd03"/><circle r="22.5" transform="translate(262.5 233.5)" fill="#fff"/><circle r="17.5" transform="translate(1317.5 406.5)" fill="#109d58"/><circle r="17.5" transform="translate(230.5 156.5)" fill="#109d58"/><circle r="29" transform="translate(344 137)" fill="#4286f5"/><g id="eUBeZrVEMNR523_to" transform="translate(802.553,190.572357)"><g transform="translate(-835.252655,-56.603954)"><path d="M640.3,57.167032l97.907546,55.606071l15.092798,18.918298v-31.86004L640.3,57.167032Z" transform="translate(122.252656-43.968402)" fill="#fff" stroke="#000" stroke-width="2"/><path d="M629.81,60.5547L644.31,80.5l-23-12.9453l8.5-7Z" transform="translate(231.69 8.25)" fill="#222"/><path d="M559.499593,27.686288Q616.745362,112.785698,618.465,114.831l39.310032-31.030871c-63.319034-36.547015-60.564034-35.60323-98.275439-56.113841Z" transform="translate(203.132169-14.654692)" fill="#fff" stroke="#000" stroke-width="2" stroke-linecap="round" stroke-linejoin="round"/><path d="M560.728129,27.021906L673.00682,69.686236l32.963179-28.92321-145.24187-13.74112Z" transform="translate(201.903633-13.823277)" fill="#fff" stroke="#000" stroke-width="2"/><path d="M875.553,55.148297l-.642547,32.574701" transform="translate(0 0.000001)" fill="none" stroke="#000" stroke-width="2"/></g></g><path d="M657.775033,82.673751l16.061092,19.319486L650.368,89.5q6.600083-5.832525,7.407033-6.826249Z" fill="none" stroke="#3f5787" stroke-width="0"/><path id="eUBeZrVEMNR530" d="M789.570328,163.1519c0,0,2.148622,3.419527,73.092314,88.262875" transform="matrix(1.082088 0 0 0.966216-66.798576 7.119024)" opacity="0" fill="none" stroke="#000" stroke-width="2" stroke-dasharray="5,5"/><path id="eUBeZrVEMNR531" d="M754.5,134.898834C867.652354,251.5,755.81,135.331617,864.5,249.077" opacity="0" fill="none" stroke="#000" stroke-width="2" stroke-dasharray="5,5"/><path id="eUBeZrVEMNR532" d="M716.277354,94.992592c160.381167,159.183498.665926,0,159.275646,162.424408" transform="matrix(.881039 0 0 0.894647 95.282009 19.015163)" opacity="0" fill="none" stroke="#000" stroke-width="2.848" stroke-dasharray="5,5"/><path id="eUBeZrVEMNR533" d="M810.588114,189.749621c0,0,59.410886,67.403879,59.410886,67.403879" transform="matrix(.87689 0 0 0.864906 104.758931 30.586396)" opacity="0" fill="none" stroke="#000" stroke-width="2" stroke-dasharray="5,5"/></svg>